<svg xmlns="http://www.w3.org/2000/svg" xmlns:xlink="http://www.w3.org/1999/xlink" contentStyleType="text/css" data-diagram-type="SEQUENCE" height="416px" preserveAspectRatio="none" style="width:705px;height:416px;background:#282828;" version="1.1" viewBox="0 0 705 416" width="705px" zoomAndPan="magnify"><defs/><g><rect fill="#282828" height="416" style="stroke:transparent;stroke-width:1;" width="705" x="0" y="0"/><g><title>tracker_router</title><rect fill="#282828" height="234.1953" style="stroke:#33FF33;stroke-width:1;" width="10" x="203.7251" y="83.7266"/></g><g><title>dependencies</title><rect fill="#282828" height="58.2656" style="stroke:#33FF33;stroke-width:1;" width="10" x="359.0054" y="112.8594"/></g><g><title>crud</title><rect fill="#282828" height="73.3984" style="stroke:#33FF33;stroke-width:1;" width="10" x="467.4819" y="200.2578"/></g><g><title>Database</title><rect fill="#282828" height="205.0625" style="stroke:#33FF33;stroke-width:1;" width="10" x="654.397" y="141.9922"/></g><g><title>Frontend</title><rect fill="transparent" height="312.4609" width="8" x="54.5547" y="52.5938"/><line style="stroke:#33FF33;stroke-width:1;" x1="58" x2="58" y1="52.5938" y2="365.0547"/></g><g><title>tracker_router</title><rect fill="transparent" height="312.4609" width="8" x="204.7251" y="52.5938"/><line style="stroke:#33FF33;stroke-width:1;" x1="208.6997" x2="208.6997" y1="52.5938" y2="365.0547"/></g><g><title>dependencies</title><rect fill="transparent" height="312.4609" width="8" x="360.0054" y="52.5938"/><line style="stroke:#33FF33;stroke-width:1;" x1="363.1353" x2="363.1353" y1="52.5938" y2="365.0547"/></g><g><title>crud</title><rect fill="transparent" height="312.4609" width="8" x="468.4819" y="52.5938"/><line style="stroke:#33FF33;stroke-width:1;" x1="471.8755" x2="471.8755" y1="52.5938" y2="365.0547"/></g><g><title>Database</title><rect fill="transparent" height="312.4609" width="8" x="655.397" y="52.5938"/><line style="stroke:#33FF33;stroke-width:1;" x1="658.9966" x2="658.9966" y1="52.5938" y2="365.0547"/></g><rect fill="#282828" height="46.5938" rx="2.5" ry="2.5" style="stroke:#33FF33;stroke-width:1;" width="77.1094" x="20" y="5"/><text fill="#33FF33" font-family="Verdana" font-size="14" lengthAdjust="spacing" textLength="63.1094" x="27" y="24.9951">Frontend</text><text fill="#33FF33" font-family="Verdana" font-size="14" lengthAdjust="spacing" textLength="40.5303" x="38.2896" y="41.292">Client</text><rect fill="#282828" height="46.5938" rx="2.5" ry="2.5" style="stroke:#33FF33;stroke-width:1;" width="77.1094" x="20" y="364.0547"/><text fill="#33FF33" font-family="Verdana" font-size="14" lengthAdjust="spacing" textLength="63.1094" x="27" y="384.0498">Frontend</text><text fill="#33FF33" font-family="Verdana" font-size="14" lengthAdjust="spacing" textLength="40.5303" x="38.2896" y="400.3467">Client</text><rect fill="#282828" height="46.5938" rx="2.5" ry="2.5" style="stroke:#33FF33;stroke-width:1;" width="114.0508" x="151.6997" y="5"/><text fill="#33FF33" font-family="Verdana" font-size="14" lengthAdjust="spacing" textLength="100.0508" x="158.6997" y="24.9951">tracker_router</text><text fill="#33FF33" font-family="Verdana" font-size="14" lengthAdjust="spacing" textLength="85.5039" x="165.9731" y="41.292">/api/tracker/</text><rect fill="#282828" height="46.5938" rx="2.5" ry="2.5" style="stroke:#33FF33;stroke-width:1;" width="114.0508" x="151.6997" y="364.0547"/><text fill="#33FF33" font-family="Verdana" font-size="14" lengthAdjust="spacing" textLength="100.0508" x="158.6997" y="384.0498">tracker_router</text><text fill="#33FF33" font-family="Verdana" font-size="14" lengthAdjust="spacing" textLength="85.5039" x="165.9731" y="400.3467">/api/tracker/</text><rect fill="#282828" height="46.5938" rx="2.5" ry="2.5" style="stroke:#33FF33;stroke-width:1;" width="111.7402" x="308.1353" y="5"/><text fill="#33FF33" font-family="Verdana" font-size="14" lengthAdjust="spacing" textLength="97.7402" x="315.1353" y="24.9951">dependencies</text><text fill="#33FF33" font-family="Verdana" font-size="14" lengthAdjust="spacing" textLength="58.6865" x="334.6621" y="41.292">get_db()</text><rect fill="#282828" height="46.5938" rx="2.5" ry="2.5" style="stroke:#33FF33;stroke-width:1;" width="111.7402" x="308.1353" y="364.0547"/><text fill="#33FF33" font-family="Verdana" font-size="14" lengthAdjust="spacing" textLength="97.7402" x="315.1353" y="384.0498">dependencies</text><text fill="#33FF33" font-family="Verdana" font-size="14" lengthAdjust="spacing" textLength="58.6865" x="334.6621" y="400.3467">get_db()</text><rect fill="#282828" height="30.2969" rx="2.5" ry="2.5" style="stroke:#33FF33;stroke-width:1;" width="45.2129" x="449.8755" y="21.2969"/><text fill="#33FF33" font-family="Verdana" font-size="14" lengthAdjust="spacing" textLength="31.2129" x="456.8755" y="41.292">crud</text><rect fill="#282828" height="30.2969" rx="2.5" ry="2.5" style="stroke:#33FF33;stroke-width:1;" width="45.2129" x="449.8755" y="364.0547"/><text fill="#33FF33" font-family="Verdana" font-size="14" lengthAdjust="spacing" textLength="31.2129" x="456.8755" y="384.0498">crud</text><rect fill="#282828" height="30.2969" rx="2.5" ry="2.5" style="stroke:#33FF33;stroke-width:1;" width="80.8008" x="618.9966" y="21.2969"/><text fill="#33FF33" font-family="Verdana" font-size="14" lengthAdjust="spacing" textLength="66.8008" x="625.9966" y="41.292">Database</text><rect fill="#282828" height="30.2969" rx="2.5" ry="2.5" style="stroke:#33FF33;stroke-width:1;" width="80.8008" x="618.9966" y="364.0547"/><text fill="#33FF33" font-family="Verdana" font-size="14" lengthAdjust="spacing" textLength="66.8008" x="625.9966" y="384.0498">Database</text><g><title>tracker_router</title><rect fill="#282828" height="234.1953" style="stroke:#33FF33;stroke-width:1;" width="10" x="203.7251" y="83.7266"/></g><g><title>dependencies</title><rect fill="#282828" height="58.2656" style="stroke:#33FF33;stroke-width:1;" width="10" x="359.0054" y="112.8594"/></g><g><title>crud</title><rect fill="#282828" height="73.3984" style="stroke:#33FF33;stroke-width:1;" width="10" x="467.4819" y="200.2578"/></g><g><title>Database</title><rect fill="#282828" height="205.0625" style="stroke:#33FF33;stroke-width:1;" width="10" x="654.397" y="141.9922"/></g><polygon fill="#33FF33" points="191.7251,79.7266,201.7251,83.7266,191.7251,87.7266,195.7251,83.7266" style="stroke:#33FF33;stroke-width:1;"/><line style="stroke:#33FF33;stroke-width:1;" x1="58.5547" x2="197.7251" y1="83.7266" y2="83.7266"/><text fill="#33FF33" font-family="Verdana" font-size="13" lengthAdjust="spacing" textLength="109.7573" x="65.5547" y="78.6606">GET /api/tracker/</text><polygon fill="#33FF33" points="347.0054,108.8594,357.0054,112.8594,347.0054,116.8594,351.0054,112.8594" style="stroke:#33FF33;stroke-width:1;"/><line style="stroke:#33FF33;stroke-width:1;" x1="213.7251" x2="353.0054" y1="112.8594" y2="112.8594"/><text fill="#33FF33" font-family="Verdana" font-size="13" lengthAdjust="spacing" textLength="126.2803" x="220.7251" y="107.7935">Request db session</text><polygon fill="#33FF33" points="642.397,137.9922,652.397,141.9922,642.397,145.9922,646.397,141.9922" style="stroke:#33FF33;stroke-width:1;"/><line style="stroke:#33FF33;stroke-width:1;" x1="369.0054" x2="648.397" y1="141.9922" y2="141.9922"/><text fill="#33FF33" font-family="Verdana" font-size="13" lengthAdjust="spacing" textLength="93.666" x="376.0054" y="136.9263">SessionLocal()</text><polygon fill="#33FF33" points="224.7251,167.125,214.7251,171.125,224.7251,175.125,220.7251,171.125" style="stroke:#33FF33;stroke-width:1;"/><line style="stroke:#33FF33;stroke-width:1;stroke-dasharray:2.0,2.0;" x1="218.7251" x2="363.0054" y1="171.125" y2="171.125"/><text fill="#33FF33" font-family="Verdana" font-size="13" lengthAdjust="spacing" textLength="104.0571" x="230.7251" y="166.0591">yield db session</text><polygon fill="#33FF33" points="455.4819,196.2578,465.4819,200.2578,455.4819,204.2578,459.4819,200.2578" style="stroke:#33FF33;stroke-width:1;"/><line style="stroke:#33FF33;stroke-width:1;" x1="213.7251" x2="461.4819" y1="200.2578" y2="200.2578"/><text fill="#33FF33" font-family="Verdana" font-size="13" lengthAdjust="spacing" textLength="107.6943" x="220.7251" y="195.1919">get_trackers(db)</text><polygon fill="#33FF33" points="642.397,240.5234,652.397,244.5234,642.397,248.5234,646.397,244.5234" style="stroke:#33FF33;stroke-width:1;"/><line style="stroke:#33FF33;stroke-width:1;" x1="477.4819" x2="648.397" y1="244.5234" y2="244.5234"/><text fill="#33FF33" font-family="Verdana" font-size="13" lengthAdjust="spacing" textLength="128.4385" x="484.4819" y="224.3247">SELECT all Trackers</text><text fill="#33FF33" font-family="Verdana" font-size="13" lengthAdjust="spacing" textLength="152.915" x="484.4819" y="239.4575">(with joined Resources)</text><polygon fill="#33FF33" points="483.4819,269.6563,473.4819,273.6563,483.4819,277.6563,479.4819,273.6563" style="stroke:#33FF33;stroke-width:1;"/><line style="stroke:#33FF33;stroke-width:1;stroke-dasharray:2.0,2.0;" x1="477.4819" x2="653.397" y1="273.6563" y2="273.6563"/><text fill="#33FF33" font-family="Verdana" font-size="13" lengthAdjust="spacing" textLength="82.1387" x="489.4819" y="268.5903">List[Tracker]</text><polygon fill="#33FF33" points="69.5547,313.9219,59.5547,317.9219,69.5547,321.9219,65.5547,317.9219" style="stroke:#33FF33;stroke-width:1;"/><line style="stroke:#33FF33;stroke-width:1;stroke-dasharray:2.0,2.0;" x1="63.5547" x2="207.7251" y1="317.9219" y2="317.9219"/><text fill="#33FF33" font-family="Verdana" font-size="13" lengthAdjust="spacing" textLength="121.1704" x="75.5547" y="297.7231">List[TrackerModel]</text><text fill="#33FF33" font-family="Verdana" font-size="13" lengthAdjust="spacing" textLength="105.6504" x="75.5547" y="312.856">(JSON response)</text><polygon fill="#33FF33" points="647.397,343.0547,657.397,347.0547,647.397,351.0547,651.397,347.0547" style="stroke:#33FF33;stroke-width:1;"/><line style="stroke:#33FF33;stroke-width:1;" x1="364.0054" x2="653.397" y1="347.0547" y2="347.0547"/><text fill="#33FF33" font-family="Verdana" font-size="13" lengthAdjust="spacing" textLength="85.7378" x="371.0054" y="341.9888">close session</text><!--SRC=[bP8_JyCm4CNtV8gZ2ybGLUeO2GRwJq85fBPCjAeS-zGQWXti2uXlZ-CaRPmoG8P4oRrtx-UxND4Htn6ueU718AeekeQRFrvEkiQF4XL76ASmDreHAW5p97v42nl3-1iQM4fB_sbRC4EIou8fWa7RTQickKH50s3s51LAgSxR6rqIcgqQiKAEceyZxsk8LbuGcWKMhg4xYqIxLGUalSZYnBiMIDExSIZdfXI-E5azJtkrAIEMCOk-NZcZqsY6jo532elP1WBGY76IduomHni5hrMdcYk5LRK4Io0oi6YjrEhSes6l7vN9EzQrRAavo-FahEvABr6_9UQYcoAmdtC9wUUJGZNGveGs5badinwWlv_vPilPP0Cipri6jvFuIz8HNhLKADoPhIuDHvj4BMsJLFrjBurhrqMiW_g4pjXk9_G-Q87vpiNUhvyUmQ0jjBAOT3ls5jGRCi-rnTzcvQe_]--></g></svg>