<svg xmlns="http://www.w3.org/2000/svg" xmlns:xlink="http://www.w3.org/1999/xlink" contentStyleType="text/css" data-diagram-type="CLASS" height="1049px" preserveAspectRatio="none" style="width:1106px;height:1049px;background:#282828;" version="1.1" viewBox="0 0 1106 1049" width="1106px" zoomAndPan="magnify"><defs/><g><rect fill="#282828" height="1049" style="stroke:transparent;stroke-width:1;" width="1106" x="0" y="0"/><!--cluster API Models--><g id="cluster_API Models"><path d="M59.2065,55.7949 C84.0356,21.9821 118.0362,20.0245 139.5978,59.3847 C159.2439,34.0022 184.0339,38.0644 199.0307,64.697 C221.9999,27.3969 243.9523,26.1367 272.0354,59.4067 C292.7213,26.7248 314.9106,23.8081 343.0247,50.5299 C360.3049,12.1704 394.4329,18.4467 414.2951,47.8128 C441.6311,11 469.6125,24.7871 487.0292,58.1009 C503.841,30.947 530.8361,24.4306 550.8437,54.5394 C571.009,24.8868 602.1075,22.5135 622.659,54.0865 C638.7722,24.0172 666.2399,14.4358 687.9143,48.4209 C711.0597,12.5539 745.6258,21.2919 758.754,58.175 C778.7493,25.5046 809.2357,20.7575 830.5677,56.7776 C851.1379,29.5765 886.851,27.9071 901.7641,63.2204 C918.5723,28.2715 955.628,18.9342 976.9919,58.6291 C995.8578,27.0366 1029.3891,32.0395 1045.1528,62.0608 C1049.8328,56.6453 1055.1399,57.9328 1057.028,64.7673 C1090.8395,89.5772 1085.6825,120.2941 1050.1117,138.605 C1073.5314,157.8536 1076.0887,174.4741 1050.3548,193.9387 C1082.7871,210.1906 1094.6336,244.8673 1057.1507,267.572 C1084.3345,284.6822 1093.5552,310.4652 1061.5373,331.6294 C1086.8604,348.311 1088.401,374.6575 1063.3277,392.8139 C1099.1987,414.1228 1097.2581,443.7442 1067.4866,468.6528 C1098.205,483.6865 1094.7539,510.6192 1067.7607,525.9291 C1092.6234,549.2053 1091.8307,570.2163 1064.4651,590.8409 C1092.7441,615.8631 1088.3217,643.1148 1057.1303,662.0076 C1083.5618,679.4867 1089.36,697.134 1063.8355,720.5627 C1090.4924,744.9082 1094.5559,772.0997 1056.7288,789.8291 C1090.6314,816.0696 1092.9158,840.6571 1052.1808,862.2077 C1081.5768,874.9707 1080.5324,904.0722 1057.1466,921.2729 C1088.7881,953.751 1076.9944,977.0589 1038.1528,990.0808 C1042.521,988.0248 1045.8938,990.5255 1045.5545,995.2327 C1018.8758,1027.4298 995.6561,1031.6122 969.345,994.8265 C951.9298,1023.006 920.3816,1020.5572 905.102,992.3915 C886.9815,1026.8396 867.0994,1034.2649 839.2287,1002.0222 C820.2756,1030.7867 787.7853,1033.6742 770.381,1000.306 C746.2887,1035.7517 716.2499,1030.1533 697.148,995.1206 C677.8605,1028.0861 641.8097,1036.7022 621.3825,996.2975 C601.6638,1030.0041 572.8944,1033.7603 552.5345,996.9233 C536.8516,1027.6483 513.41,1032.1189 489.7557,1005.6773 C467.0381,1038.2269 433.641,1041.2575 411.5362,1004.9809 C391.6487,1036.8408 358.8972,1035.847 342.2804,1001.5567 C319.1264,1027.4116 291.9634,1028.2536 275.1137,994.4581 C252.2057,1032.0406 220.8086,1032.1741 198.445,993.9079 C185.9985,1020.7408 157.7454,1025.7884 139.5897,1000.3343 C103.2512,1042.0694 68.2362,1035.9748 50.1528,983.0808 C57.2545,980.5778 61.0421,984.1052 59.9214,991.3341 C20.0229,972.306 17.5823,949.6405 52.8669,922.866 C23.4331,903.969 25.1235,872.6562 58.4704,859.293 C28.0262,843.2184 20.4611,811.847 52.7169,790.5265 C28.0225,771.6733 23.6557,746.2815 56.895,731.5312 C26.1288,718.7074 17.8331,685.5364 46.6042,663.6824 C21.9474,640.2424 21.8082,616.2481 53.1272,598.4013 C19.6057,573.454 17.1552,549.5202 53.6339,525.0565 C21.8031,503.9051 22.151,484.8459 54.735,464.8729 C24.4065,443.3218 12.6569,417.4177 51.1024,392.4187 C20.5765,375.307 22.3975,355.4895 48.3806,335.6675 C16.823,311.8633 21.8767,285.0628 54.1497,266.5894 C25.0989,250.4277 19.6212,223.4686 51.1313,204.369 C11,184.0029 21.3919,149.8824 52.0608,130.406 C21.3002,103.3098 24.8597,77.8958 57.1528,55.0608 C58.0261,54.3881 59.0096,54.5757 59.2065,55.7949 " fill="#282828" style="stroke:#33FF33;stroke-width:1;"/><text fill="#33FF33" font-family="Verdana" font-size="14" font-weight="bold" lengthAdjust="spacing" textLength="87.377" x="503.9644" y="73.0559">API Models</text></g><!--class DeviceInfo--><g id="elem_DeviceInfo"><rect codeLine="5" fill="#282828" height="174.375" id="DeviceInfo" rx="2.5" ry="2.5" style="stroke:#33FF33;stroke-width:1;" width="183.0791" x="406.6128" y="316.4408"/><ellipse cx="457.2149" cy="330.4408" fill="#282828" rx="9" ry="9" style="stroke:#33FF33;stroke-width:1;"/><path d="M460.1836,336.0814 Q459.6055,336.3783 458.9649,336.5189 Q458.3243,336.6752 457.6211,336.6752 Q455.1211,336.6752 453.793,335.0346 Q452.4805,333.3783 452.4805,330.2533 Q452.4805,327.1283 453.793,325.4721 Q455.1211,323.8158 457.6211,323.8158 Q458.3243,323.8158 458.9649,323.9721 Q459.6211,324.1283 460.1836,324.4252 L460.1836,327.1439 Q459.5586,326.5658 458.9649,326.3002 Q458.3711,326.0189 457.7461,326.0189 Q456.4024,326.0189 455.7149,327.0971 Q455.0274,328.1596 455.0274,330.2533 Q455.0274,332.3471 455.7149,333.4252 Q456.4024,334.4877 457.7461,334.4877 Q458.3711,334.4877 458.9649,334.2221 Q459.5586,333.9408 460.1836,333.3627 L460.1836,336.0814 Z " fill="#33FF33"/><text fill="#33FF33" font-family="Verdana" font-size="14" lengthAdjust="spacing" textLength="74.375" x="474.7149" y="335.2875">DeviceInfo</text><line style="stroke:#33FF33;stroke-width:1;" x1="407.6128" x2="588.6919" y1="344.4408" y2="344.4408"/><ellipse cx="417.6128" cy="358.0893" fill="transparent" rx="3" ry="3" style="stroke:#33FF33;stroke-width:1;"/><text fill="#33FF33" font-family="Verdana" font-size="14" lengthAdjust="spacing" textLength="86.6387" x="424.6128" y="361.4359">tenantId: str</text><ellipse cx="417.6128" cy="374.3861" fill="transparent" rx="3" ry="3" style="stroke:#33FF33;stroke-width:1;"/><text fill="#33FF33" font-family="Verdana" font-size="14" lengthAdjust="spacing" textLength="114.9258" x="424.6128" y="377.7328">tenantName: str</text><ellipse cx="417.6128" cy="390.683" fill="transparent" rx="3" ry="3" style="stroke:#33FF33;stroke-width:1;"/><text fill="#33FF33" font-family="Verdana" font-size="14" lengthAdjust="spacing" textLength="117.9473" x="424.6128" y="394.0297">applicationId: str</text><ellipse cx="417.6128" cy="406.9799" fill="transparent" rx="3" ry="3" style="stroke:#33FF33;stroke-width:1;"/><text fill="#33FF33" font-family="Verdana" font-size="14" lengthAdjust="spacing" textLength="146.2344" x="424.6128" y="410.3266">applicationName: str</text><ellipse cx="417.6128" cy="423.2768" fill="transparent" rx="3" ry="3" style="stroke:#33FF33;stroke-width:1;"/><text fill="#33FF33" font-family="Verdana" font-size="14" lengthAdjust="spacing" textLength="130.792" x="424.6128" y="426.6234">deviceProfileId: str</text><ellipse cx="417.6128" cy="439.5736" fill="transparent" rx="3" ry="3" style="stroke:#33FF33;stroke-width:1;"/><text fill="#33FF33" font-family="Verdana" font-size="14" lengthAdjust="spacing" textLength="159.0791" x="424.6128" y="442.9203">deviceProfileName: str</text><ellipse cx="417.6128" cy="455.8705" fill="transparent" rx="3" ry="3" style="stroke:#33FF33;stroke-width:1;"/><text fill="#33FF33" font-family="Verdana" font-size="14" lengthAdjust="spacing" textLength="114.9941" x="424.6128" y="459.2172">deviceName: str</text><ellipse cx="417.6128" cy="472.1674" fill="transparent" rx="3" ry="3" style="stroke:#33FF33;stroke-width:1;"/><text fill="#33FF33" font-family="Verdana" font-size="14" lengthAdjust="spacing" textLength="75.0996" x="424.6128" y="475.5141">devEui: str</text><line style="stroke:#33FF33;stroke-width:1;" x1="407.6128" x2="588.6919" y1="482.8158" y2="482.8158"/></g><!--class ChirpstackPayloadMessage--><g id="elem_ChirpstackPayloadMessage"><rect codeLine="16" fill="#282828" height="92.8906" id="ChirpstackPayloadMessage" rx="2.5" ry="2.5" style="stroke:#33FF33;stroke-width:1;" width="218.9346" x="509.6828" y="720.0008"/><ellipse cx="522.6828" cy="734.0008" fill="#282828" rx="9" ry="9" style="stroke:#33FF33;stroke-width:1;"/><path d="M525.6516,739.6414 Q525.0735,739.9383 524.4328,740.0789 Q523.7922,740.2352 523.0891,740.2352 Q520.5891,740.2352 519.261,738.5946 Q517.9485,736.9383 517.9485,733.8133 Q517.9485,730.6883 519.261,729.0321 Q520.5891,727.3758 523.0891,727.3758 Q523.7922,727.3758 524.4328,727.5321 Q525.0891,727.6883 525.6516,727.9852 L525.6516,730.7039 Q525.0266,730.1258 524.4328,729.8602 Q523.8391,729.5789 523.2141,729.5789 Q521.8703,729.5789 521.1828,730.6571 Q520.4953,731.7196 520.4953,733.8133 Q520.4953,735.9071 521.1828,736.9852 Q521.8703,738.0477 523.2141,738.0477 Q523.8391,738.0477 524.4328,737.7821 Q525.0266,737.5008 525.6516,736.9227 L525.6516,739.6414 Z " fill="#33FF33"/><text fill="#33FF33" font-family="Verdana" font-size="14" lengthAdjust="spacing" textLength="190.9346" x="534.6828" y="738.8475">ChirpstackPayloadMessage</text><line style="stroke:#33FF33;stroke-width:1;" x1="510.6828" x2="727.6174" y1="748.0008" y2="748.0008"/><ellipse cx="520.6828" cy="761.6493" fill="transparent" rx="3" ry="3" style="stroke:#33FF33;stroke-width:1;"/><text fill="#33FF33" font-family="Verdana" font-size="14" lengthAdjust="spacing" textLength="58.9805" x="527.6828" y="764.9959">type: str</text><ellipse cx="520.6828" cy="777.9461" fill="transparent" rx="3" ry="3" style="stroke:#33FF33;stroke-width:1;"/><text fill="#33FF33" font-family="Verdana" font-size="14" lengthAdjust="spacing" textLength="116.1357" x="527.6828" y="781.2928">timestamp: float</text><ellipse cx="520.6828" cy="794.243" fill="transparent" rx="3" ry="3" style="stroke:#33FF33;stroke-width:1;"/><text fill="#33FF33" font-family="Verdana" font-size="14" lengthAdjust="spacing" textLength="138.7012" x="527.6828" y="797.5897">measurementId: str</text><line style="stroke:#33FF33;stroke-width:1;" x1="510.6828" x2="727.6174" y1="804.8914" y2="804.8914"/></g><!--class ChirpstackPayloadBatteryMessage--><g id="elem_ChirpstackPayloadBatteryMessage"><rect codeLine="22" fill="#282828" height="109.1875" id="ChirpstackPayloadBatteryMessage" rx="2.5" ry="2.5" style="stroke:#33FF33;stroke-width:1;" width="270.751" x="130.7728" y="872.8908"/><ellipse cx="143.7728" cy="886.8908" fill="#282828" rx="9" ry="9" style="stroke:#33FF33;stroke-width:1;"/><path d="M146.7416,892.5314 Q146.1635,892.8283 145.5228,892.9689 Q144.8822,893.1252 144.1791,893.1252 Q141.6791,893.1252 140.351,891.4846 Q139.0385,889.8283 139.0385,886.7033 Q139.0385,883.5783 140.351,881.9221 Q141.6791,880.2658 144.1791,880.2658 Q144.8822,880.2658 145.5228,880.4221 Q146.1791,880.5783 146.7416,880.8752 L146.7416,883.5939 Q146.1166,883.0158 145.5228,882.7502 Q144.9291,882.4689 144.3041,882.4689 Q142.9603,882.4689 142.2728,883.5471 Q141.5853,884.6096 141.5853,886.7033 Q141.5853,888.7971 142.2728,889.8752 Q142.9603,890.9377 144.3041,890.9377 Q144.9291,890.9377 145.5228,890.6721 Q146.1166,890.3908 146.7416,889.8127 L146.7416,892.5314 Z " fill="#33FF33"/><text fill="#33FF33" font-family="Verdana" font-size="14" lengthAdjust="spacing" textLength="242.751" x="155.7728" y="891.7375">ChirpstackPayloadBatteryMessage</text><line style="stroke:#33FF33;stroke-width:1;" x1="131.7728" x2="400.5238" y1="900.8908" y2="900.8908"/><ellipse cx="141.7728" cy="914.5393" fill="transparent" rx="3" ry="3" style="stroke:#33FF33;stroke-width:1;"/><text fill="#33FF33" font-family="Verdana" font-size="14" lengthAdjust="spacing" textLength="58.9805" x="148.7728" y="917.8859">type: str</text><ellipse cx="141.7728" cy="930.8361" fill="transparent" rx="3" ry="3" style="stroke:#33FF33;stroke-width:1;"/><text fill="#33FF33" font-family="Verdana" font-size="14" lengthAdjust="spacing" textLength="116.1357" x="148.7728" y="934.1828">timestamp: float</text><ellipse cx="141.7728" cy="947.133" fill="transparent" rx="3" ry="3" style="stroke:#33FF33;stroke-width:1;"/><text fill="#33FF33" font-family="Verdana" font-size="14" lengthAdjust="spacing" textLength="138.7012" x="148.7728" y="950.4797">measurementId: str</text><ellipse cx="141.7728" cy="963.4299" fill="transparent" rx="3" ry="3" style="stroke:#33FF33;stroke-width:1;"/><text fill="#33FF33" font-family="Verdana" font-size="14" lengthAdjust="spacing" textLength="178.1309" x="148.7728" y="966.7766">measurementValue: float</text><line style="stroke:#33FF33;stroke-width:1;" x1="131.7728" x2="400.5238" y1="974.0783" y2="974.0783"/></g><!--class ChirpstackPayloadLatitudeMessage--><g id="elem_ChirpstackPayloadLatitudeMessage"><rect codeLine="29" fill="#282828" height="109.1875" id="ChirpstackPayloadLatitudeMessage" rx="2.5" ry="2.5" style="stroke:#33FF33;stroke-width:1;" width="276.5547" x="436.8728" y="872.8908"/><ellipse cx="449.8728" cy="886.8908" fill="#282828" rx="9" ry="9" style="stroke:#33FF33;stroke-width:1;"/><path d="M452.8416,892.5314 Q452.2635,892.8283 451.6228,892.9689 Q450.9822,893.1252 450.2791,893.1252 Q447.7791,893.1252 446.451,891.4846 Q445.1385,889.8283 445.1385,886.7033 Q445.1385,883.5783 446.451,881.9221 Q447.7791,880.2658 450.2791,880.2658 Q450.9822,880.2658 451.6228,880.4221 Q452.2791,880.5783 452.8416,880.8752 L452.8416,883.5939 Q452.2166,883.0158 451.6228,882.7502 Q451.0291,882.4689 450.4041,882.4689 Q449.0603,882.4689 448.3728,883.5471 Q447.6853,884.6096 447.6853,886.7033 Q447.6853,888.7971 448.3728,889.8752 Q449.0603,890.9377 450.4041,890.9377 Q451.0291,890.9377 451.6228,890.6721 Q452.2166,890.3908 452.8416,889.8127 L452.8416,892.5314 Z " fill="#33FF33"/><text fill="#33FF33" font-family="Verdana" font-size="14" lengthAdjust="spacing" textLength="248.5547" x="461.8728" y="891.7375">ChirpstackPayloadLatitudeMessage</text><line style="stroke:#33FF33;stroke-width:1;" x1="437.8728" x2="712.4275" y1="900.8908" y2="900.8908"/><ellipse cx="447.8728" cy="914.5393" fill="transparent" rx="3" ry="3" style="stroke:#33FF33;stroke-width:1;"/><text fill="#33FF33" font-family="Verdana" font-size="14" lengthAdjust="spacing" textLength="58.9805" x="454.8728" y="917.8859">type: str</text><ellipse cx="447.8728" cy="930.8361" fill="transparent" rx="3" ry="3" style="stroke:#33FF33;stroke-width:1;"/><text fill="#33FF33" font-family="Verdana" font-size="14" lengthAdjust="spacing" textLength="116.1357" x="454.8728" y="934.1828">timestamp: float</text><ellipse cx="447.8728" cy="947.133" fill="transparent" rx="3" ry="3" style="stroke:#33FF33;stroke-width:1;"/><text fill="#33FF33" font-family="Verdana" font-size="14" lengthAdjust="spacing" textLength="138.7012" x="454.8728" y="950.4797">measurementId: str</text><ellipse cx="447.8728" cy="963.4299" fill="transparent" rx="3" ry="3" style="stroke:#33FF33;stroke-width:1;"/><text fill="#33FF33" font-family="Verdana" font-size="14" lengthAdjust="spacing" textLength="178.1309" x="454.8728" y="966.7766">measurementValue: float</text><line style="stroke:#33FF33;stroke-width:1;" x1="437.8728" x2="712.4275" y1="974.0783" y2="974.0783"/></g><!--class ChirpstackPayloadLongitudeMessage--><g id="elem_ChirpstackPayloadLongitudeMessage"><rect codeLine="36" fill="#282828" height="109.1875" id="ChirpstackPayloadLongitudeMessage" rx="2.5" ry="2.5" style="stroke:#33FF33;stroke-width:1;" width="288.8115" x="748.7428" y="872.8908"/><ellipse cx="761.7428" cy="886.8908" fill="#282828" rx="9" ry="9" style="stroke:#33FF33;stroke-width:1;"/><path d="M764.7116,892.5314 Q764.1335,892.8283 763.4928,892.9689 Q762.8522,893.1252 762.1491,893.1252 Q759.6491,893.1252 758.321,891.4846 Q757.0085,889.8283 757.0085,886.7033 Q757.0085,883.5783 758.321,881.9221 Q759.6491,880.2658 762.1491,880.2658 Q762.8522,880.2658 763.4928,880.4221 Q764.1491,880.5783 764.7116,880.8752 L764.7116,883.5939 Q764.0866,883.0158 763.4928,882.7502 Q762.8991,882.4689 762.2741,882.4689 Q760.9303,882.4689 760.2428,883.5471 Q759.5553,884.6096 759.5553,886.7033 Q759.5553,888.7971 760.2428,889.8752 Q760.9303,890.9377 762.2741,890.9377 Q762.8991,890.9377 763.4928,890.6721 Q764.0866,890.3908 764.7116,889.8127 L764.7116,892.5314 Z " fill="#33FF33"/><text fill="#33FF33" font-family="Verdana" font-size="14" lengthAdjust="spacing" textLength="260.8115" x="773.7428" y="891.7375">ChirpstackPayloadLongitudeMessage</text><line style="stroke:#33FF33;stroke-width:1;" x1="749.7428" x2="1036.5544" y1="900.8908" y2="900.8908"/><ellipse cx="759.7428" cy="914.5393" fill="transparent" rx="3" ry="3" style="stroke:#33FF33;stroke-width:1;"/><text fill="#33FF33" font-family="Verdana" font-size="14" lengthAdjust="spacing" textLength="58.9805" x="766.7428" y="917.8859">type: str</text><ellipse cx="759.7428" cy="930.8361" fill="transparent" rx="3" ry="3" style="stroke:#33FF33;stroke-width:1;"/><text fill="#33FF33" font-family="Verdana" font-size="14" lengthAdjust="spacing" textLength="116.1357" x="766.7428" y="934.1828">timestamp: float</text><ellipse cx="759.7428" cy="947.133" fill="transparent" rx="3" ry="3" style="stroke:#33FF33;stroke-width:1;"/><text fill="#33FF33" font-family="Verdana" font-size="14" lengthAdjust="spacing" textLength="138.7012" x="766.7428" y="950.4797">measurementId: str</text><ellipse cx="759.7428" cy="963.4299" fill="transparent" rx="3" ry="3" style="stroke:#33FF33;stroke-width:1;"/><text fill="#33FF33" font-family="Verdana" font-size="14" lengthAdjust="spacing" textLength="178.1309" x="766.7428" y="966.7766">measurementValue: float</text><line style="stroke:#33FF33;stroke-width:1;" x1="749.7428" x2="1036.5544" y1="974.0783" y2="974.0783"/></g><!--class ChirpstackPayloadObject--><g id="elem_ChirpstackPayloadObject"><rect codeLine="43" fill="#282828" height="109.1875" id="ChirpstackPayloadObject" rx="2.5" ry="2.5" style="stroke:#33FF33;stroke-width:1;" width="231.0742" x="590.6128" y="550.8108"/><ellipse cx="616.1693" cy="564.8108" fill="#282828" rx="9" ry="9" style="stroke:#33FF33;stroke-width:1;"/><path d="M619.1381,570.4514 Q618.56,570.7483 617.9193,570.8889 Q617.2787,571.0452 616.5756,571.0452 Q614.0756,571.0452 612.7475,569.4046 Q611.435,567.7483 611.435,564.6233 Q611.435,561.4983 612.7475,559.8421 Q614.0756,558.1858 616.5756,558.1858 Q617.2787,558.1858 617.9193,558.3421 Q618.5756,558.4983 619.1381,558.7952 L619.1381,561.5139 Q618.5131,560.9358 617.9193,560.6702 Q617.3256,560.3889 616.7006,560.3889 Q615.3568,560.3889 614.6693,561.4671 Q613.9818,562.5296 613.9818,564.6233 Q613.9818,566.7171 614.6693,567.7952 Q615.3568,568.8577 616.7006,568.8577 Q617.3256,568.8577 617.9193,568.5921 Q618.5131,568.3108 619.1381,567.7327 L619.1381,570.4514 Z " fill="#33FF33"/><text fill="#33FF33" font-family="Verdana" font-size="14" lengthAdjust="spacing" textLength="175.1709" x="630.9597" y="569.6575">ChirpstackPayloadObject</text><line style="stroke:#33FF33;stroke-width:1;" x1="591.6128" x2="820.6871" y1="578.8108" y2="578.8108"/><ellipse cx="601.6128" cy="592.4593" fill="transparent" rx="3" ry="3" style="stroke:#33FF33;stroke-width:1;"/><text fill="#33FF33" font-family="Verdana" font-size="14" lengthAdjust="spacing" textLength="72.6045" x="608.6128" y="595.8059">valid: bool</text><ellipse cx="601.6128" cy="608.7561" fill="transparent" rx="3" ry="3" style="stroke:#33FF33;stroke-width:1;"/><text fill="#33FF33" font-family="Verdana" font-size="14" lengthAdjust="spacing" textLength="83.3779" x="608.6128" y="612.1028">payload: str</text><ellipse cx="601.6128" cy="625.053" fill="transparent" rx="3" ry="3" style="stroke:#33FF33;stroke-width:1;"/><text fill="#33FF33" font-family="Verdana" font-size="14" lengthAdjust="spacing" textLength="60.7441" x="608.6128" y="628.3997">err: float</text><ellipse cx="601.6128" cy="641.3499" fill="transparent" rx="3" ry="3" style="stroke:#33FF33;stroke-width:1;"/><text fill="#33FF33" font-family="Verdana" font-size="14" lengthAdjust="spacing" textLength="207.0742" x="608.6128" y="644.6966">messages: list[list[Union[...]]]</text><line style="stroke:#33FF33;stroke-width:1;" x1="591.6128" x2="820.6871" y1="651.9983" y2="651.9983"/></g><!--class ChirpstackBaseEventModel--><g id="elem_ChirpstackBaseEventModel"><rect codeLine="50" fill="#282828" height="76.5938" id="ChirpstackBaseEventModel" rx="2.5" ry="2.5" style="stroke:#33FF33;stroke-width:1;" width="218.5791" x="593.8628" y="130.9508"/><ellipse cx="606.8628" cy="144.9508" fill="#282828" rx="9" ry="9" style="stroke:#33FF33;stroke-width:1;"/><path d="M609.8316,150.5914 Q609.2535,150.8883 608.6128,151.0289 Q607.9722,151.1852 607.2691,151.1852 Q604.7691,151.1852 603.441,149.5446 Q602.1285,147.8883 602.1285,144.7633 Q602.1285,141.6383 603.441,139.9821 Q604.7691,138.3258 607.2691,138.3258 Q607.9722,138.3258 608.6128,138.4821 Q609.2691,138.6383 609.8316,138.9352 L609.8316,141.6539 Q609.2066,141.0758 608.6128,140.8102 Q608.0191,140.5289 607.3941,140.5289 Q606.0503,140.5289 605.3628,141.6071 Q604.6753,142.6696 604.6753,144.7633 Q604.6753,146.8571 605.3628,147.9352 Q606.0503,148.9977 607.3941,148.9977 Q608.0191,148.9977 608.6128,148.7321 Q609.2066,148.4508 609.8316,147.8727 L609.8316,150.5914 Z " fill="#33FF33"/><text fill="#33FF33" font-family="Verdana" font-size="14" lengthAdjust="spacing" textLength="190.5791" x="618.8628" y="149.7975">ChirpstackBaseEventModel</text><line style="stroke:#33FF33;stroke-width:1;" x1="594.8628" x2="811.4419" y1="158.9508" y2="158.9508"/><ellipse cx="604.8628" cy="172.5993" fill="transparent" rx="3" ry="3" style="stroke:#33FF33;stroke-width:1;"/><text fill="#33FF33" font-family="Verdana" font-size="14" lengthAdjust="spacing" textLength="103.9951" x="611.8628" y="175.9459">time: datetime</text><ellipse cx="604.8628" cy="188.8961" fill="transparent" rx="3" ry="3" style="stroke:#33FF33;stroke-width:1;"/><text fill="#33FF33" font-family="Verdana" font-size="14" lengthAdjust="spacing" textLength="156.0234" x="611.8628" y="192.2428">deviceInfo: DeviceInfo</text><line style="stroke:#33FF33;stroke-width:1;" x1="594.8628" x2="811.4419" y1="199.5446" y2="199.5446"/></g><!--class ChirpstackUpEventModel--><g id="elem_ChirpstackUpEventModel"><rect codeLine="55" fill="#282828" height="92.8906" id="ChirpstackUpEventModel" rx="2.5" ry="2.5" style="stroke:#33FF33;stroke-width:1;" width="251.4795" x="624.4128" y="357.1808"/><ellipse cx="658.9487" cy="371.1808" fill="#282828" rx="9" ry="9" style="stroke:#33FF33;stroke-width:1;"/><path d="M661.9174,376.8214 Q661.3393,377.1183 660.6987,377.2589 Q660.058,377.4152 659.3549,377.4152 Q656.8549,377.4152 655.5268,375.7746 Q654.2143,374.1183 654.2143,370.9933 Q654.2143,367.8683 655.5268,366.2121 Q656.8549,364.5558 659.3549,364.5558 Q660.058,364.5558 660.6987,364.7121 Q661.3549,364.8683 661.9174,365.1652 L661.9174,367.8839 Q661.2924,367.3058 660.6987,367.0402 Q660.1049,366.7589 659.4799,366.7589 Q658.1362,366.7589 657.4487,367.8371 Q656.7612,368.8996 656.7612,370.9933 Q656.7612,373.0871 657.4487,374.1652 Q658.1362,375.2277 659.4799,375.2277 Q660.1049,375.2277 660.6987,374.9621 Q661.2924,374.6808 661.9174,374.1027 L661.9174,376.8214 Z " fill="#33FF33"/><text fill="#33FF33" font-family="Verdana" font-size="14" lengthAdjust="spacing" textLength="175.6221" x="675.7344" y="376.0275">ChirpstackUpEventModel</text><line style="stroke:#33FF33;stroke-width:1;" x1="625.4128" x2="874.8923" y1="385.1808" y2="385.1808"/><ellipse cx="635.4128" cy="398.8293" fill="transparent" rx="3" ry="3" style="stroke:#33FF33;stroke-width:1;"/><text fill="#33FF33" font-family="Verdana" font-size="14" lengthAdjust="spacing" textLength="135.7412" x="642.4128" y="402.1759">deduplicationId: str</text><ellipse cx="635.4128" cy="415.1261" fill="transparent" rx="3" ry="3" style="stroke:#33FF33;stroke-width:1;"/><text fill="#33FF33" font-family="Verdana" font-size="14" lengthAdjust="spacing" textLength="86.5977" x="642.4128" y="418.4728">devAddr: str</text><ellipse cx="635.4128" cy="431.423" fill="transparent" rx="3" ry="3" style="stroke:#33FF33;stroke-width:1;"/><text fill="#33FF33" font-family="Verdana" font-size="14" lengthAdjust="spacing" textLength="227.4795" x="642.4128" y="434.7697">object: ChirpstackPayloadObject</text><line style="stroke:#33FF33;stroke-width:1;" x1="625.4128" x2="874.8923" y1="442.0714" y2="442.0714"/></g><!--class TrackerModel--><g id="elem_TrackerModel"><rect codeLine="61" fill="#282828" height="174.375" id="TrackerModel" rx="2.5" ry="2.5" style="stroke:#33FF33;stroke-width:1;" width="256.2715" x="58.0128" y="82.0608"/><ellipse cx="134.8512" cy="96.0608" fill="#282828" rx="9" ry="9" style="stroke:#33FF33;stroke-width:1;"/><path d="M137.82,101.7014 Q137.2418,101.9983 136.6012,102.1389 Q135.9606,102.2952 135.2575,102.2952 Q132.7575,102.2952 131.4293,100.6546 Q130.1168,98.9983 130.1168,95.8733 Q130.1168,92.7483 131.4293,91.0921 Q132.7575,89.4358 135.2575,89.4358 Q135.9606,89.4358 136.6012,89.5921 Q137.2575,89.7483 137.82,90.0452 L137.82,92.7639 Q137.195,92.1858 136.6012,91.9202 Q136.0075,91.6389 135.3825,91.6389 Q134.0387,91.6389 133.3512,92.7171 Q132.6637,93.7796 132.6637,95.8733 Q132.6637,97.9671 133.3512,99.0452 Q134.0387,100.1077 135.3825,100.1077 Q136.0075,100.1077 136.6012,99.8421 Q137.195,99.5608 137.82,98.9827 L137.82,101.7014 Z " fill="#33FF33"/><text fill="#33FF33" font-family="Verdana" font-size="14" lengthAdjust="spacing" textLength="95.0947" x="152.3512" y="100.9075">TrackerModel</text><line style="stroke:#33FF33;stroke-width:1;" x1="59.0128" x2="313.2843" y1="110.0608" y2="110.0608"/><ellipse cx="69.0128" cy="123.7093" fill="transparent" rx="3" ry="3" style="stroke:#33FF33;stroke-width:1;"/><text fill="#33FF33" font-family="Verdana" font-size="14" lengthAdjust="spacing" textLength="40.1953" x="76.0128" y="127.0559">id: int</text><ellipse cx="69.0128" cy="140.0061" fill="transparent" rx="3" ry="3" style="stroke:#33FF33;stroke-width:1;"/><text fill="#33FF33" font-family="Verdana" font-size="14" lengthAdjust="spacing" textLength="96.9131" x="76.0128" y="143.3528">deviceEUI: str</text><ellipse cx="69.0128" cy="156.303" fill="transparent" rx="3" ry="3" style="stroke:#33FF33;stroke-width:1;"/><text fill="#33FF33" font-family="Verdana" font-size="14" lengthAdjust="spacing" textLength="67.4092" x="76.0128" y="159.6497">name: str</text><ellipse cx="69.0128" cy="172.5999" fill="transparent" rx="3" ry="3" style="stroke:#33FF33;stroke-width:1;"/><text fill="#33FF33" font-family="Verdana" font-size="14" lengthAdjust="spacing" textLength="91.7178" x="76.0128" y="175.9466">battery: float</text><ellipse cx="69.0128" cy="188.8968" fill="transparent" rx="3" ry="3" style="stroke:#33FF33;stroke-width:1;"/><text fill="#33FF33" font-family="Verdana" font-size="14" lengthAdjust="spacing" textLength="70.834" x="76.0128" y="192.2434">long: float</text><ellipse cx="69.0128" cy="205.1936" fill="transparent" rx="3" ry="3" style="stroke:#33FF33;stroke-width:1;"/><text fill="#33FF33" font-family="Verdana" font-size="14" lengthAdjust="spacing" textLength="58.5771" x="76.0128" y="208.5403">lat: float</text><ellipse cx="69.0128" cy="221.4905" fill="transparent" rx="3" ry="3" style="stroke:#33FF33;stroke-width:1;"/><text fill="#33FF33" font-family="Verdana" font-size="14" lengthAdjust="spacing" textLength="112.2598" x="76.0128" y="224.8372">lastUpdated: int</text><ellipse cx="69.0128" cy="237.7874" fill="transparent" rx="3" ry="3" style="stroke:#33FF33;stroke-width:1;"/><text fill="#33FF33" font-family="Verdana" font-size="14" lengthAdjust="spacing" textLength="232.2715" x="76.0128" y="241.1341">resource: Union[Resource, None]</text><line style="stroke:#33FF33;stroke-width:1;" x1="59.0128" x2="313.2843" y1="248.4358" y2="248.4358"/></g><!--class TrackerUpdateModel--><g id="elem_TrackerUpdateModel"><rect codeLine="72" fill="#282828" height="60.2969" id="TrackerUpdateModel" rx="2.5" ry="2.5" style="stroke:#33FF33;stroke-width:1;" width="209.3838" x="349.4628" y="139.1008"/><ellipse cx="378.4769" cy="153.1008" fill="#282828" rx="9" ry="9" style="stroke:#33FF33;stroke-width:1;"/><path d="M381.4457,158.7414 Q380.8676,159.0383 380.2269,159.1789 Q379.5863,159.3352 378.8832,159.3352 Q376.3832,159.3352 375.0551,157.6946 Q373.7426,156.0383 373.7426,152.9133 Q373.7426,149.7883 375.0551,148.1321 Q376.3832,146.4758 378.8832,146.4758 Q379.5863,146.4758 380.2269,146.6321 Q380.8832,146.7883 381.4457,147.0852 L381.4457,149.8039 Q380.8207,149.2258 380.2269,148.9602 Q379.6332,148.6789 379.0082,148.6789 Q377.6644,148.6789 376.9769,149.7571 Q376.2894,150.8196 376.2894,152.9133 Q376.2894,155.0071 376.9769,156.0852 Q377.6644,157.1477 379.0082,157.1477 Q379.6332,157.1477 380.2269,156.8821 Q380.8207,156.6008 381.4457,156.0227 L381.4457,158.7414 Z " fill="#33FF33"/><text fill="#33FF33" font-family="Verdana" font-size="14" lengthAdjust="spacing" textLength="145.7969" x="394.0356" y="157.9475">TrackerUpdateModel</text><line style="stroke:#33FF33;stroke-width:1;" x1="350.4628" x2="557.8466" y1="167.1008" y2="167.1008"/><ellipse cx="360.4628" cy="180.7493" fill="transparent" rx="3" ry="3" style="stroke:#33FF33;stroke-width:1;"/><text fill="#33FF33" font-family="Verdana" font-size="14" lengthAdjust="spacing" textLength="185.3838" x="367.4628" y="184.0959">resource: Union[int, None]</text><line style="stroke:#33FF33;stroke-width:1;" x1="350.4628" x2="557.8466" y1="191.3977" y2="191.3977"/></g><!--class MCPConfig--><g id="elem_MCPConfig"><rect codeLine="76" fill="#282828" height="76.5938" id="MCPConfig" rx="2.5" ry="2.5" style="stroke:#33FF33;stroke-width:1;" width="105.0674" x="58.6228" y="365.3308"/><ellipse cx="72.456" cy="379.3308" fill="#282828" rx="9" ry="9" style="stroke:#33FF33;stroke-width:1;"/><path d="M75.4248,384.9714 Q74.8467,385.2683 74.206,385.4089 Q73.5654,385.5652 72.8623,385.5652 Q70.3623,385.5652 69.0342,383.9246 Q67.7217,382.2683 67.7217,379.1433 Q67.7217,376.0183 69.0342,374.3621 Q70.3623,372.7058 72.8623,372.7058 Q73.5654,372.7058 74.206,372.8621 Q74.8623,373.0183 75.4248,373.3152 L75.4248,376.0339 Q74.7998,375.4558 74.206,375.1902 Q73.6123,374.9089 72.9873,374.9089 Q71.6435,374.9089 70.956,375.9871 Q70.2685,377.0496 70.2685,379.1433 Q70.2685,381.2371 70.956,382.3152 Q71.6435,383.3777 72.9873,383.3777 Q73.6123,383.3777 74.206,383.1121 Q74.7998,382.8308 75.4248,382.2527 L75.4248,384.9714 Z " fill="#33FF33"/><text fill="#33FF33" font-family="Verdana" font-size="14" lengthAdjust="spacing" textLength="75.2158" x="84.6412" y="384.1775">MCPConfig</text><line style="stroke:#33FF33;stroke-width:1;" x1="59.6228" x2="162.6902" y1="393.3308" y2="393.3308"/><ellipse cx="69.6228" cy="406.9793" fill="transparent" rx="3" ry="3" style="stroke:#33FF33;stroke-width:1;"/><text fill="#33FF33" font-family="Verdana" font-size="14" lengthAdjust="spacing" textLength="46.2246" x="76.6228" y="410.3259">url: str</text><ellipse cx="69.6228" cy="423.2761" fill="transparent" rx="3" ry="3" style="stroke:#33FF33;stroke-width:1;"/><text fill="#33FF33" font-family="Verdana" font-size="14" lengthAdjust="spacing" textLength="81.0674" x="76.6228" y="426.6228">api_key: str</text><line style="stroke:#33FF33;stroke-width:1;" x1="59.6228" x2="162.6902" y1="433.9246" y2="433.9246"/></g><!--class MCPOperationConfig--><g id="elem_MCPOperationConfig"><rect codeLine="81" fill="#282828" height="60.2969" id="MCPOperationConfig" rx="2.5" ry="2.5" style="stroke:#33FF33;stroke-width:1;" width="172.8877" x="198.7128" y="373.4808"/><ellipse cx="211.7128" cy="387.4808" fill="#282828" rx="9" ry="9" style="stroke:#33FF33;stroke-width:1;"/><path d="M214.6816,393.1214 Q214.1035,393.4183 213.4628,393.5589 Q212.8222,393.7152 212.1191,393.7152 Q209.6191,393.7152 208.291,392.0746 Q206.9785,390.4183 206.9785,387.2933 Q206.9785,384.1683 208.291,382.5121 Q209.6191,380.8558 212.1191,380.8558 Q212.8222,380.8558 213.4628,381.0121 Q214.1191,381.1683 214.6816,381.4652 L214.6816,384.1839 Q214.0566,383.6058 213.4628,383.3402 Q212.8691,383.0589 212.2441,383.0589 Q210.9003,383.0589 210.2128,384.1371 Q209.5253,385.1996 209.5253,387.2933 Q209.5253,389.3871 210.2128,390.4652 Q210.9003,391.5277 212.2441,391.5277 Q212.8691,391.5277 213.4628,391.2621 Q214.0566,390.9808 214.6816,390.4027 L214.6816,393.1214 Z " fill="#33FF33"/><text fill="#33FF33" font-family="Verdana" font-size="14" lengthAdjust="spacing" textLength="144.8877" x="223.7128" y="392.3275">MCPOperationConfig</text><line style="stroke:#33FF33;stroke-width:1;" x1="199.7128" x2="370.6005" y1="401.4808" y2="401.4808"/><ellipse cx="209.7128" cy="415.1293" fill="transparent" rx="3" ry="3" style="stroke:#33FF33;stroke-width:1;"/><text fill="#33FF33" font-family="Verdana" font-size="14" lengthAdjust="spacing" textLength="49.3555" x="216.7128" y="418.4759">uid: str</text><line style="stroke:#33FF33;stroke-width:1;" x1="199.7128" x2="370.6005" y1="425.7777" y2="425.7777"/></g><!--class MCPResource--><g id="elem_MCPResource"><rect codeLine="85" fill="#282828" height="92.8906" id="MCPResource" rx="2.5" ry="2.5" style="stroke:#33FF33;stroke-width:1;" width="123.4365" x="910.4328" y="357.1808"/><ellipse cx="923.4328" cy="371.1808" fill="#282828" rx="9" ry="9" style="stroke:#33FF33;stroke-width:1;"/><path d="M926.4016,376.8214 Q925.8235,377.1183 925.1828,377.2589 Q924.5422,377.4152 923.8391,377.4152 Q921.3391,377.4152 920.011,375.7746 Q918.6985,374.1183 918.6985,370.9933 Q918.6985,367.8683 920.011,366.2121 Q921.3391,364.5558 923.8391,364.5558 Q924.5422,364.5558 925.1828,364.7121 Q925.8391,364.8683 926.4016,365.1652 L926.4016,367.8839 Q925.7766,367.3058 925.1828,367.0402 Q924.5891,366.7589 923.9641,366.7589 Q922.6203,366.7589 921.9328,367.8371 Q921.2453,368.8996 921.2453,370.9933 Q921.2453,373.0871 921.9328,374.1652 Q922.6203,375.2277 923.9641,375.2277 Q924.5891,375.2277 925.1828,374.9621 Q925.7766,374.6808 926.4016,374.1027 L926.4016,376.8214 Z " fill="#33FF33"/><text fill="#33FF33" font-family="Verdana" font-size="14" lengthAdjust="spacing" textLength="95.4365" x="935.4328" y="376.0275">MCPResource</text><line style="stroke:#33FF33;stroke-width:1;" x1="911.4328" x2="1032.8694" y1="385.1808" y2="385.1808"/><ellipse cx="921.4328" cy="398.8293" fill="transparent" rx="3" ry="3" style="stroke:#33FF33;stroke-width:1;"/><text fill="#33FF33" font-family="Verdana" font-size="14" lengthAdjust="spacing" textLength="67.4092" x="928.4328" y="402.1759">name: str</text><ellipse cx="921.4328" cy="415.1261" fill="transparent" rx="3" ry="3" style="stroke:#33FF33;stroke-width:1;"/><text fill="#33FF33" font-family="Verdana" font-size="14" lengthAdjust="spacing" textLength="58.9805" x="928.4328" y="418.4728">type: str</text><ellipse cx="921.4328" cy="431.423" fill="transparent" rx="3" ry="3" style="stroke:#33FF33;stroke-width:1;"/><text fill="#33FF33" font-family="Verdana" font-size="14" lengthAdjust="spacing" textLength="40.4824" x="928.4328" y="434.7697">id: str</text><line style="stroke:#33FF33;stroke-width:1;" x1="911.4328" x2="1032.8694" y1="442.0714" y2="442.0714"/></g><!--class MCPTablueItem--><g id="elem_MCPTablueItem"><rect codeLine="91" fill="#282828" height="109.1875" id="MCPTablueItem" rx="2.5" ry="2.5" style="stroke:#33FF33;stroke-width:1;" width="189.7715" x="847.2628" y="114.6608"/><ellipse cx="883.7582" cy="128.6608" fill="#282828" rx="9" ry="9" style="stroke:#33FF33;stroke-width:1;"/><path d="M886.7269,134.3014 Q886.1488,134.5983 885.5082,134.7389 Q884.8676,134.8952 884.1644,134.8952 Q881.6644,134.8952 880.3363,133.2546 Q879.0238,131.5983 879.0238,128.4733 Q879.0238,125.3483 880.3363,123.6921 Q881.6644,122.0358 884.1644,122.0358 Q884.8676,122.0358 885.5082,122.1921 Q886.1644,122.3483 886.7269,122.6452 L886.7269,125.3639 Q886.1019,124.7858 885.5082,124.5202 Q884.9144,124.2389 884.2894,124.2389 Q882.9457,124.2389 882.2582,125.3171 Q881.5707,126.3796 881.5707,128.4733 Q881.5707,130.5671 882.2582,131.6452 Q882.9457,132.7077 884.2894,132.7077 Q884.9144,132.7077 885.5082,132.4421 Q886.1019,132.1608 886.7269,131.5827 L886.7269,134.3014 Z " fill="#33FF33"/><text fill="#33FF33" font-family="Verdana" font-size="14" lengthAdjust="spacing" textLength="109.5596" x="900.9794" y="133.5075">MCPTablueItem</text><line style="stroke:#33FF33;stroke-width:1;" x1="848.2628" x2="1036.0343" y1="142.6608" y2="142.6608"/><ellipse cx="858.2628" cy="156.3093" fill="transparent" rx="3" ry="3" style="stroke:#33FF33;stroke-width:1;"/><text fill="#33FF33" font-family="Verdana" font-size="14" lengthAdjust="spacing" textLength="40.4824" x="865.2628" y="159.6559">id: str</text><ellipse cx="858.2628" cy="172.6061" fill="transparent" rx="3" ry="3" style="stroke:#33FF33;stroke-width:1;"/><text fill="#33FF33" font-family="Verdana" font-size="14" lengthAdjust="spacing" textLength="107.9395" x="865.2628" y="175.9528">operationId: str</text><ellipse cx="858.2628" cy="188.903" fill="transparent" rx="3" ry="3" style="stroke:#33FF33;stroke-width:1;"/><text fill="#33FF33" font-family="Verdana" font-size="14" lengthAdjust="spacing" textLength="165.7715" x="865.2628" y="192.2497">resource: MCPResource</text><ellipse cx="858.2628" cy="205.1999" fill="transparent" rx="3" ry="3" style="stroke:#33FF33;stroke-width:1;"/><text fill="#33FF33" font-family="Verdana" font-size="14" lengthAdjust="spacing" textLength="70.4375" x="865.2628" y="208.5466">status: int</text><line style="stroke:#33FF33;stroke-width:1;" x1="848.2628" x2="1036.0343" y1="215.8483" y2="215.8483"/></g><!--reverse link ChirpstackBaseEventModel to ChirpstackUpEventModel--><g id="link_ChirpstackBaseEventModel_ChirpstackUpEventModel"><path codeLine="98" d="M714.3214,225.4935 C722.5314,266.0835 732.0528,313.1208 740.8628,356.6908 " fill="transparent" id="ChirpstackBaseEventModel-backto-ChirpstackUpEventModel" style="stroke:#33FF33;stroke-width:1;"/><polygon fill="transparent" points="710.7528,207.8508,708.4405,226.6831,720.2023,224.304,710.7528,207.8508" style="stroke:#33FF33;stroke-width:1;"/></g><!--reverse link ChirpstackBaseEventModel to DeviceInfo--><g id="link_ChirpstackBaseEventModel_DeviceInfo"><path codeLine="99" d="M662.0526,216.8482 C636.2126,246.1282 607.2528,278.9608 574.2628,316.3508 " fill="transparent" id="ChirpstackBaseEventModel-backto-DeviceInfo" style="stroke:#33FF33;stroke-width:1;"/><polygon fill="#33FF33" points="669.9928,207.8508,663.0236,209.7027,662.0526,216.8482,669.0218,214.9962,669.9928,207.8508" style="stroke:#33FF33;stroke-width:1;"/></g><!--reverse link ChirpstackUpEventModel to ChirpstackPayloadObject--><g id="link_ChirpstackUpEventModel_ChirpstackPayloadObject"><path codeLine="100" d="M737.4788,462.1793 C730.8988,492.0193 724.8928,519.3408 717.9928,550.6408 " fill="transparent" id="ChirpstackUpEventModel-backto-ChirpstackPayloadObject" style="stroke:#33FF33;stroke-width:1;"/><polygon fill="#33FF33" points="740.0628,450.4608,734.8647,455.4587,737.4788,462.1793,742.677,457.1814,740.0628,450.4608" style="stroke:#33FF33;stroke-width:1;"/></g><!--reverse link ChirpstackPayloadObject to ChirpstackPayloadMessage--><g id="link_ChirpstackPayloadObject_ChirpstackPayloadMessage"><path codeLine="101" d="M670.9448,670.7791 C660.3948,690.0691 654.3628,701.0808 644.2228,719.6208 " fill="transparent" id="ChirpstackPayloadObject-backto-ChirpstackPayloadMessage" style="stroke:#33FF33;stroke-width:1;"/><polygon fill="#33FF33" points="676.7028,660.2508,670.3144,663.5956,670.9448,670.7791,677.3332,667.4343,676.7028,660.2508" style="stroke:#33FF33;stroke-width:1;"/></g><!--reverse link ChirpstackPayloadMessage to ChirpstackPayloadBatteryMessage--><g id="link_ChirpstackPayloadMessage_ChirpstackPayloadBatteryMessage"><path codeLine="102" d="M501.1115,820.6247 C460.0715,839.1147 428.8128,853.2008 386.0828,872.4508 " fill="transparent" id="ChirpstackPayloadMessage-backto-ChirpstackPayloadBatteryMessage" style="stroke:#33FF33;stroke-width:1;"/><polygon fill="transparent" points="517.5228,813.2308,498.6469,815.1543,503.5762,826.0951,517.5228,813.2308" style="stroke:#33FF33;stroke-width:1;"/></g><!--reverse link ChirpstackPayloadMessage to ChirpstackPayloadLatitudeMessage--><g id="link_ChirpstackPayloadMessage_ChirpstackPayloadLatitudeMessage"><path codeLine="103" d="M601.7426,830.369 C596.6126,848.909 595.4428,853.1408 590.1028,872.4608 " fill="transparent" id="ChirpstackPayloadMessage-backto-ChirpstackPayloadLatitudeMessage" style="stroke:#33FF33;stroke-width:1;"/><polygon fill="transparent" points="606.5428,813.0208,595.9599,828.7689,607.5253,831.969,606.5428,813.0208" style="stroke:#33FF33;stroke-width:1;"/></g><!--reverse link ChirpstackPayloadMessage to ChirpstackPayloadLongitudeMessage--><g id="link_ChirpstackPayloadMessage_ChirpstackPayloadLongitudeMessage"><path codeLine="104" d="M713.6003,822.2671 C745.5403,840.8071 767.0828,853.3108 800.3028,872.6008 " fill="transparent" id="ChirpstackPayloadMessage-backto-ChirpstackPayloadLongitudeMessage" style="stroke:#33FF33;stroke-width:1;"/><polygon fill="transparent" points="698.0328,813.2308,710.5882,827.4563,716.6124,817.078,698.0328,813.2308" style="stroke:#33FF33;stroke-width:1;"/></g><!--reverse link MCPTablueItem to MCPResource--><g id="link_MCPTablueItem_MCPResource"><path codeLine="105" d="M950.6486,236.0521 C955.8386,276.2721 961.3228,318.7308 966.2428,356.8608 " fill="transparent" id="MCPTablueItem-backto-MCPResource" style="stroke:#33FF33;stroke-width:1;"/><polygon fill="#33FF33" points="949.1128,224.1508,945.9136,230.6134,950.6486,236.0521,953.8478,229.5896,949.1128,224.1508" style="stroke:#33FF33;stroke-width:1;"/></g><!--SRC=[pLNBRjim4BpxAzXSsgQrFq1m0oIE3mBYM2ZiNWAZeCMrmuGY2P8o8BJvzrAI3Kbyw12WG7Gmh5tEp3wugq_c6Gf0kJBJemBWaybdzAD-K5OHp0tDqKeGO1fzkSrITBzPww_jWOd4-Ii-0hgg7UsXApIVBvWeoSqD-ZD1ziaPrXhTmudcaFA3E9lhvvi1RXLIaY1jb6j-n0Ku3YmbepasL70FrFC5aAJHpvGuK0OUTk2DeiEEPKaxuzkab_FYcIgfZIrIXYicC5c1rdMz-XMefCjfQ04MLSW47IpAT9u2i2wLxTQmPkEYTzWOKDL_qdPzlp0heGyU3-x1zikK13veT88VFt1uw_qBvAOVr0apQldtGh3EADlJZYme5GYpILCdY55jdfgVBRS3zJIRpNQxtLXCTrZ3ycIJQFR0e5Aq7Xk23TJ_tA6gLqBIMmzZ6biPLY10olXYi3gtX2Z7AfhY9R6g-c5ib3q3oXEl2qwvSVDQRbD7aVlhOz_EfjS8PY-URyGcODDcA-lQkb4eqA9KkLLiE_Zp_FuTFGeEksX-BPkNfKjdjQ9CgqMs4Fn0Zts2KZ5lOTFVhr15zfWbMKjGJKi3R9J4SPTK-u10yGCJFCQwmNixdQc1mkt-y5vTWlRkOLV2NeoTszv1K-gkYsVzw8JD_qwdaTaO1rvRd3DlaH6x7YZuyn7RI47SUOU6WPS5woGL_8IzXy7vphoBmlaOD1p3Ur7dtU_jspy0]--></g></svg>