<svg xmlns="http://www.w3.org/2000/svg" xmlns:xlink="http://www.w3.org/1999/xlink" contentStyleType="text/css" data-diagram-type="CLASS" height="503px" preserveAspectRatio="none" style="width:727px;height:503px;background:#282828;" version="1.1" viewBox="0 0 727 503" width="727px" zoomAndPan="magnify"><defs/><g><rect fill="#282828" height="503" style="stroke:transparent;stroke-width:1;" width="727" x="0" y="0"/><!--cluster Database Models--><g id="cluster_Database Models"><path d="M11,21 C11,11 360.5,11 360.5,11 C360.5,11 710,11 710,21 L710,476.45 C710,486.45 360.5,486.45 360.5,486.45 C360.5,486.45 11,486.45 11,476.45 L11,21 " fill="#282828" style="stroke:#33FF33;stroke-width:1;"/><path d="M11,21 C11,31 360.5,31 360.5,31 C360.5,31 710,31 710,21 " fill="transparent" style="stroke:#33FF33;stroke-width:1;"/><text fill="#33FF33" font-family="Verdana" font-size="14" font-weight="bold" lengthAdjust="spacing" textLength="135.5771" x="292.7114" y="45.9951">Database Models</text></g><!--class Tracker--><g id="elem_Tracker"><rect codeLine="5" fill="#282828" height="190.6719" id="Tracker" rx="2.5" ry="2.5" style="stroke:#33FF33;stroke-width:1;" width="229.5908" x="305.2" y="61"/><ellipse cx="389.7151" cy="75" fill="#282828" rx="9" ry="9" style="stroke:#33FF33;stroke-width:1;"/><path d="M392.6839,80.6406 Q392.1058,80.9375 391.4651,81.0781 Q390.8245,81.2344 390.1214,81.2344 Q387.6214,81.2344 386.2933,79.5938 Q384.9808,77.9375 384.9808,74.8125 Q384.9808,71.6875 386.2933,70.0313 Q387.6214,68.375 390.1214,68.375 Q390.8245,68.375 391.4651,68.5313 Q392.1214,68.6875 392.6839,68.9844 L392.6839,71.7031 Q392.0589,71.125 391.4651,70.8594 Q390.8714,70.5781 390.2464,70.5781 Q388.9026,70.5781 388.2151,71.6563 Q387.5276,72.7188 387.5276,74.8125 Q387.5276,76.9063 388.2151,77.9844 Q388.9026,79.0469 390.2464,79.0469 Q390.8714,79.0469 391.4651,78.7813 Q392.0589,78.5 392.6839,77.9219 L392.6839,80.6406 Z " fill="#33FF33"/><text fill="#33FF33" font-family="Verdana" font-size="14" lengthAdjust="spacing" textLength="53.0605" x="407.2151" y="79.8467">Tracker</text><line style="stroke:#33FF33;stroke-width:1;" x1="306.2" x2="533.7908" y1="89" y2="89"/><ellipse cx="316.2" cy="102.6484" fill="transparent" rx="3" ry="3" style="stroke:#33FF33;stroke-width:1;"/><text fill="#33FF33" font-family="Verdana" font-size="14" lengthAdjust="spacing" textLength="40.1953" x="323.2" y="105.9951">id: int</text><ellipse cx="316.2" cy="118.9453" fill="transparent" rx="3" ry="3" style="stroke:#33FF33;stroke-width:1;"/><text fill="#33FF33" font-family="Verdana" font-size="14" lengthAdjust="spacing" textLength="96.9131" x="323.2" y="122.292">deviceEUI: str</text><ellipse cx="316.2" cy="135.2422" fill="transparent" rx="3" ry="3" style="stroke:#33FF33;stroke-width:1;"/><text fill="#33FF33" font-family="Verdana" font-size="14" lengthAdjust="spacing" textLength="67.4092" x="323.2" y="138.5889">name: str</text><ellipse cx="316.2" cy="151.5391" fill="transparent" rx="3" ry="3" style="stroke:#33FF33;stroke-width:1;"/><text fill="#33FF33" font-family="Verdana" font-size="14" lengthAdjust="spacing" textLength="91.7178" x="323.2" y="154.8857">battery: float</text><ellipse cx="316.2" cy="167.8359" fill="transparent" rx="3" ry="3" style="stroke:#33FF33;stroke-width:1;"/><text fill="#33FF33" font-family="Verdana" font-size="14" lengthAdjust="spacing" textLength="70.834" x="323.2" y="171.1826">long: float</text><ellipse cx="316.2" cy="184.1328" fill="transparent" rx="3" ry="3" style="stroke:#33FF33;stroke-width:1;"/><text fill="#33FF33" font-family="Verdana" font-size="14" lengthAdjust="spacing" textLength="58.5771" x="323.2" y="187.4795">lat: float</text><ellipse cx="316.2" cy="200.4297" fill="transparent" rx="3" ry="3" style="stroke:#33FF33;stroke-width:1;"/><text fill="#33FF33" font-family="Verdana" font-size="14" lengthAdjust="spacing" textLength="112.2598" x="323.2" y="203.7764">lastUpdated: int</text><ellipse cx="316.2" cy="216.7266" fill="transparent" rx="3" ry="3" style="stroke:#33FF33;stroke-width:1;"/><text fill="#33FF33" font-family="Verdana" font-size="14" lengthAdjust="spacing" textLength="171.7188" x="323.2" y="220.0732">resourceId: Optional[int]</text><ellipse cx="316.2" cy="233.0234" fill="transparent" rx="3" ry="3" style="stroke:#33FF33;stroke-width:1;"/><text fill="#33FF33" font-family="Verdana" font-size="14" lengthAdjust="spacing" textLength="205.5908" x="323.2" y="236.3701">resource: Optional[Resource]</text><line style="stroke:#33FF33;stroke-width:1;" x1="306.2" x2="533.7908" y1="243.6719" y2="243.6719"/></g><g id="elem_GMN4"><path d="M27.42,136.2 L27.42,176.4656 A0,0 0 0 0 27.42,176.4656 L270.5816,176.4656 A0,0 0 0 0 270.5816,176.4656 L270.5816,160.33 L304.76,156.33 L270.5816,152.33 L270.5816,146.2 L260.5816,136.2 L27.42,136.2 A0,0 0 0 0 27.42,136.2 " fill="#282828" style="stroke:#33FF33;stroke-width:1;"/><path d="M260.5816,136.2 L260.5816,146.2 L270.5816,146.2 L260.5816,136.2 " fill="#282828" style="stroke:#33FF33;stroke-width:1;"/><text fill="#33FF33" font-family="Verdana" font-size="13" lengthAdjust="spacing" textLength="222.1616" x="33.42" y="153.2669">Represents LoRaWAN GPS tracker</text><text fill="#33FF33" font-family="Verdana" font-size="13" lengthAdjust="spacing" textLength="196.8789" x="33.42" y="168.3997">with battery and location data</text></g><!--class Operation--><g id="elem_Operation"><rect codeLine="22" fill="#282828" height="141.7813" id="Operation" rx="2.5" ry="2.5" style="stroke:#33FF33;stroke-width:1;" width="123.6543" x="570.17" y="85.44"/><ellipse cx="594.8621" cy="99.44" fill="#282828" rx="9" ry="9" style="stroke:#33FF33;stroke-width:1;"/><path d="M597.8308,105.0806 Q597.2527,105.3775 596.6121,105.5181 Q595.9715,105.6744 595.2683,105.6744 Q592.7683,105.6744 591.4402,104.0338 Q590.1277,102.3775 590.1277,99.2525 Q590.1277,96.1275 591.4402,94.4713 Q592.7683,92.815 595.2683,92.815 Q595.9715,92.815 596.6121,92.9713 Q597.2683,93.1275 597.8308,93.4244 L597.8308,96.1431 Q597.2058,95.565 596.6121,95.2994 Q596.0183,95.0181 595.3933,95.0181 Q594.0496,95.0181 593.3621,96.0963 Q592.6746,97.1588 592.6746,99.2525 Q592.6746,101.3463 593.3621,102.4244 Q594.0496,103.4869 595.3933,103.4869 Q596.0183,103.4869 596.6121,103.2213 Q597.2058,102.94 597.8308,102.3619 L597.8308,105.0806 Z " fill="#33FF33"/><text fill="#33FF33" font-family="Verdana" font-size="14" lengthAdjust="spacing" textLength="69.6719" x="609.4603" y="104.2867">Operation</text><line style="stroke:#33FF33;stroke-width:1;" x1="571.17" x2="692.8243" y1="113.44" y2="113.44"/><ellipse cx="581.17" cy="127.0884" fill="transparent" rx="3" ry="3" style="stroke:#33FF33;stroke-width:1;"/><text fill="#33FF33" font-family="Verdana" font-size="14" lengthAdjust="spacing" textLength="40.1953" x="588.17" y="130.4351">id: int</text><ellipse cx="581.17" cy="143.3853" fill="transparent" rx="3" ry="3" style="stroke:#33FF33;stroke-width:1;"/><text fill="#33FF33" font-family="Verdana" font-size="14" lengthAdjust="spacing" textLength="49.3555" x="588.17" y="146.732">uid: str</text><ellipse cx="581.17" cy="159.6822" fill="transparent" rx="3" ry="3" style="stroke:#33FF33;stroke-width:1;"/><text fill="#33FF33" font-family="Verdana" font-size="14" lengthAdjust="spacing" textLength="55.0771" x="588.17" y="163.0289">title: str</text><ellipse cx="581.17" cy="175.9791" fill="transparent" rx="3" ry="3" style="stroke:#33FF33;stroke-width:1;"/><text fill="#33FF33" font-family="Verdana" font-size="14" lengthAdjust="spacing" textLength="81.6279" x="588.17" y="179.3257">active: bool</text><ellipse cx="581.17" cy="192.2759" fill="transparent" rx="3" ry="3" style="stroke:#33FF33;stroke-width:1;"/><text fill="#33FF33" font-family="Verdana" font-size="14" lengthAdjust="spacing" textLength="99.6543" x="588.17" y="195.6226">archived: bool</text><ellipse cx="581.17" cy="208.5728" fill="transparent" rx="3" ry="3" style="stroke:#33FF33;stroke-width:1;"/><text fill="#33FF33" font-family="Verdana" font-size="14" lengthAdjust="spacing" textLength="98.1709" x="588.17" y="211.9195">selected: bool</text><line style="stroke:#33FF33;stroke-width:1;" x1="571.17" x2="692.8243" y1="219.2213" y2="219.2213"/></g><!--class Resource--><g id="elem_Resource"><rect codeLine="31" fill="#282828" height="141.7813" id="Resource" rx="2.5" ry="2.5" style="stroke:#33FF33;stroke-width:1;" width="136.2256" x="351.89" y="328.67"/><ellipse cx="384.2787" cy="342.67" fill="#282828" rx="9" ry="9" style="stroke:#33FF33;stroke-width:1;"/><path d="M387.2474,348.3106 Q386.6693,348.6075 386.0287,348.7481 Q385.388,348.9044 384.6849,348.9044 Q382.1849,348.9044 380.8568,347.2638 Q379.5443,345.6075 379.5443,342.4825 Q379.5443,339.3575 380.8568,337.7013 Q382.1849,336.045 384.6849,336.045 Q385.388,336.045 386.0287,336.2013 Q386.6849,336.3575 387.2474,336.6544 L387.2474,339.3731 Q386.6224,338.795 386.0287,338.5294 Q385.4349,338.2481 384.8099,338.2481 Q383.4662,338.2481 382.7787,339.3263 Q382.0912,340.3888 382.0912,342.4825 Q382.0912,344.5763 382.7787,345.6544 Q383.4662,346.7169 384.8099,346.7169 Q385.4349,346.7169 386.0287,346.4513 Q386.6224,346.17 387.2474,345.5919 L387.2474,348.3106 Z " fill="#33FF33"/><text fill="#33FF33" font-family="Verdana" font-size="14" lengthAdjust="spacing" textLength="65.1396" x="400.5873" y="347.5167">Resource</text><line style="stroke:#33FF33;stroke-width:1;" x1="352.89" x2="487.1156" y1="356.67" y2="356.67"/><ellipse cx="362.89" cy="370.3184" fill="transparent" rx="3" ry="3" style="stroke:#33FF33;stroke-width:1;"/><text fill="#33FF33" font-family="Verdana" font-size="14" lengthAdjust="spacing" textLength="40.1953" x="369.89" y="373.6651">id: int</text><ellipse cx="362.89" cy="386.6153" fill="transparent" rx="3" ry="3" style="stroke:#33FF33;stroke-width:1;"/><text fill="#33FF33" font-family="Verdana" font-size="14" lengthAdjust="spacing" textLength="49.3555" x="369.89" y="389.962">uid: str</text><ellipse cx="362.89" cy="402.9122" fill="transparent" rx="3" ry="3" style="stroke:#33FF33;stroke-width:1;"/><text fill="#33FF33" font-family="Verdana" font-size="14" lengthAdjust="spacing" textLength="67.4092" x="369.89" y="406.2589">name: str</text><ellipse cx="362.89" cy="419.2091" fill="transparent" rx="3" ry="3" style="stroke:#33FF33;stroke-width:1;"/><text fill="#33FF33" font-family="Verdana" font-size="14" lengthAdjust="spacing" textLength="58.9805" x="369.89" y="422.5557">type: str</text><ellipse cx="362.89" cy="435.5059" fill="transparent" rx="3" ry="3" style="stroke:#33FF33;stroke-width:1;"/><text fill="#33FF33" font-family="Verdana" font-size="14" lengthAdjust="spacing" textLength="70.4375" x="369.89" y="438.8526">status: int</text><ellipse cx="362.89" cy="451.8028" fill="transparent" rx="3" ry="3" style="stroke:#33FF33;stroke-width:1;"/><text fill="#33FF33" font-family="Verdana" font-size="14" lengthAdjust="spacing" textLength="112.2256" x="369.89" y="455.1495">tracker: Tracker</text><line style="stroke:#33FF33;stroke-width:1;" x1="352.89" x2="487.1156" y1="462.4513" y2="462.4513"/></g><!--link Tracker to Resource--><g id="link_Tracker_Resource"><path codeLine="40" d="M420,251.98 C420,277.45 420,304.55 420,328.43 " fill="transparent" id="Tracker-Resource" style="stroke:#33FF33;stroke-width:1;"/><polygon fill="#33FF33" points="425,295.2364,427.9389,286.1913,422.0611,286.1913,425,295.2364" style="stroke:#33FF33;stroke-width:1;"/><text fill="#33FF33" font-family="Verdana" font-size="13" lengthAdjust="spacing" textLength="68.8848" x="434" y="294.7369">resourceId</text><text fill="#33FF33" font-family="Verdana" font-size="13" lengthAdjust="spacing" textLength="24.8066" x="395.1487" y="271.6264">0..1</text><text fill="#33FF33" font-family="Verdana" font-size="13" lengthAdjust="spacing" textLength="24.8066" x="394.8038" y="317.395">0..1</text></g><!--SRC=[bP91ImCn48NFpQyOz-91MlIwr8AWI46jL8i7wM6QdMs3QR8aqqgH_dUpTBTDqo8uf_3Do-Jb9HUye2M1TDoTEo8Zn2NSrWNto3X3J_1i2z9-HqM5yWld15dIpg3VRz5W03y2GacDtiEx2tl8DQokArNae0mVG45h9UbXCip1ipjmWqjAq0oPoMroABN5Q8IsPduAaSympvEgGARKXIDlLqxIC3H65IjhK7y6nVHK4Wd63Tgfja9qZ6K2JIM3BTlhYqxT7LCL9f1X3qzsZ1ztB_3u-WOSQxuLBw2v9Q0fG5k9zLaGFAFeK43r2IBAU5IHssd-IdbLawCmMR5E0qR9QXtWp5eTKISN0HSfzwH9yX7VnixQTFvfxCp3ywPAaMVabK-6DM7c- -GZJ-rVpAvxlPiCkjrsjRUPm-4Nm41iVm40]--></g></svg>