<svg xmlns="http://www.w3.org/2000/svg" xmlns:xlink="http://www.w3.org/1999/xlink" contentStyleType="text/css" data-diagram-type="SEQUENCE" height="960px" preserveAspectRatio="none" style="width:995px;height:960px;background:#282828;" version="1.1" viewBox="0 0 995 960" width="995px" zoomAndPan="magnify"><defs/><g><rect fill="#282828" height="960" style="stroke:transparent;stroke-width:1;" width="995" x="0" y="0"/><g><title>tracker_router</title><rect fill="#282828" height="770.6016" style="stroke:#33FF33;stroke-width:1;" width="10" x="338.0615" y="98.8594"/></g><g><title>dependencies</title><rect fill="#282828" height="58.2656" style="stroke:#33FF33;stroke-width:1;" width="10" x="493.3418" y="127.9922"/></g><g><title>crud</title><rect fill="#282828" height="58.2656" style="stroke:#33FF33;stroke-width:1;" width="10" x="637.5605" y="215.3906"/></g><g><title>crud</title><rect fill="#282828" height="440.4688" style="stroke:#33FF33;stroke-width:1;" width="10" x="637.5605" y="370.8594"/></g><g><title>Database</title><rect fill="#282828" height="733.4688" style="stroke:#33FF33;stroke-width:1;" width="10" x="903.4531" y="157.125"/></g><rect fill="#282828" height="573.8047" style="stroke:#33FF33;stroke-width:1;" width="973.8535" x="15" y="288.6563"/><rect fill="#282828" height="527.5391" style="stroke:transparent;stroke-width:1;" width="973.8535" x="15" y="334.9219"/><rect fill="#282828" height="369.2031" style="stroke:#33FF33;stroke-width:1;" width="953.8535" x="25" y="486.2578"/><rect fill="#282828" height="293.8047" style="stroke:transparent;stroke-width:1;" width="953.8535" x="25" y="561.6563"/><rect fill="#282828" height="206.7344" style="stroke:#33FF33;stroke-width:1;" width="933.8535" x="35" y="641.7266"/><rect fill="#282828" height="131.3359" style="stroke:transparent;stroke-width:1;" width="933.8535" x="35" y="717.125"/><g><title>Frontend</title><rect fill="transparent" height="856" width="8" x="89.5547" y="52.5938"/><line style="stroke:#33FF33;stroke-width:1;" x1="93" x2="93" y1="52.5938" y2="908.5938"/></g><g><title>tracker_router</title><rect fill="transparent" height="856" width="8" x="339.0615" y="52.5938"/><line style="stroke:#33FF33;stroke-width:1;" x1="343.0142" x2="343.0142" y1="52.5938" y2="908.5938"/></g><g><title>dependencies</title><rect fill="transparent" height="856" width="8" x="494.3418" y="52.5938"/><line style="stroke:#33FF33;stroke-width:1;" x1="497.4717" x2="497.4717" y1="52.5938" y2="908.5938"/></g><g><title>crud</title><rect fill="transparent" height="856" width="8" x="638.5605" y="52.5938"/><line style="stroke:#33FF33;stroke-width:1;" x1="641.9541" x2="641.9541" y1="52.5938" y2="908.5938"/></g><g><title>Database</title><rect fill="transparent" height="856" width="8" x="904.4531" y="52.5938"/><line style="stroke:#33FF33;stroke-width:1;" x1="908.0527" x2="908.0527" y1="52.5938" y2="908.5938"/></g><rect fill="#282828" height="30.2969" rx="2.5" ry="2.5" style="stroke:#33FF33;stroke-width:1;" width="77.1094" x="55" y="21.2969"/><text fill="#33FF33" font-family="Verdana" font-size="14" lengthAdjust="spacing" textLength="63.1094" x="62" y="41.292">Frontend</text><rect fill="#282828" height="30.2969" rx="2.5" ry="2.5" style="stroke:#33FF33;stroke-width:1;" width="77.1094" x="55" y="907.5938"/><text fill="#33FF33" font-family="Verdana" font-size="14" lengthAdjust="spacing" textLength="63.1094" x="62" y="927.5889">Frontend</text><rect fill="#282828" height="46.5938" rx="2.5" ry="2.5" style="stroke:#33FF33;stroke-width:1;" width="130.0947" x="278.0142" y="5"/><text fill="#33FF33" font-family="Verdana" font-size="14" lengthAdjust="spacing" textLength="100.0508" x="293.0361" y="24.9951">tracker_router</text><text fill="#33FF33" font-family="Verdana" font-size="14" lengthAdjust="spacing" textLength="116.0947" x="285.0142" y="41.292">/api/tracker/{id}</text><rect fill="#282828" height="46.5938" rx="2.5" ry="2.5" style="stroke:#33FF33;stroke-width:1;" width="130.0947" x="278.0142" y="907.5938"/><text fill="#33FF33" font-family="Verdana" font-size="14" lengthAdjust="spacing" textLength="100.0508" x="293.0361" y="927.5889">tracker_router</text><text fill="#33FF33" font-family="Verdana" font-size="14" lengthAdjust="spacing" textLength="116.0947" x="285.0142" y="943.8857">/api/tracker/{id}</text><rect fill="#282828" height="46.5938" rx="2.5" ry="2.5" style="stroke:#33FF33;stroke-width:1;" width="111.7402" x="442.4717" y="5"/><text fill="#33FF33" font-family="Verdana" font-size="14" lengthAdjust="spacing" textLength="97.7402" x="449.4717" y="24.9951">dependencies</text><text fill="#33FF33" font-family="Verdana" font-size="14" lengthAdjust="spacing" textLength="58.6865" x="468.9985" y="41.292">get_db()</text><rect fill="#282828" height="46.5938" rx="2.5" ry="2.5" style="stroke:#33FF33;stroke-width:1;" width="111.7402" x="442.4717" y="907.5938"/><text fill="#33FF33" font-family="Verdana" font-size="14" lengthAdjust="spacing" textLength="97.7402" x="449.4717" y="927.5889">dependencies</text><text fill="#33FF33" font-family="Verdana" font-size="14" lengthAdjust="spacing" textLength="58.6865" x="468.9985" y="943.8857">get_db()</text><rect fill="#282828" height="30.2969" rx="2.5" ry="2.5" style="stroke:#33FF33;stroke-width:1;" width="45.2129" x="619.9541" y="21.2969"/><text fill="#33FF33" font-family="Verdana" font-size="14" lengthAdjust="spacing" textLength="31.2129" x="626.9541" y="41.292">crud</text><rect fill="#282828" height="30.2969" rx="2.5" ry="2.5" style="stroke:#33FF33;stroke-width:1;" width="45.2129" x="619.9541" y="907.5938"/><text fill="#33FF33" font-family="Verdana" font-size="14" lengthAdjust="spacing" textLength="31.2129" x="626.9541" y="927.5889">crud</text><rect fill="#282828" height="30.2969" rx="2.5" ry="2.5" style="stroke:#33FF33;stroke-width:1;" width="80.8008" x="868.0527" y="21.2969"/><text fill="#33FF33" font-family="Verdana" font-size="14" lengthAdjust="spacing" textLength="66.8008" x="875.0527" y="41.292">Database</text><rect fill="#282828" height="30.2969" rx="2.5" ry="2.5" style="stroke:#33FF33;stroke-width:1;" width="80.8008" x="868.0527" y="907.5938"/><text fill="#33FF33" font-family="Verdana" font-size="14" lengthAdjust="spacing" textLength="66.8008" x="875.0527" y="927.5889">Database</text><g><title>tracker_router</title><rect fill="#282828" height="770.6016" style="stroke:#33FF33;stroke-width:1;" width="10" x="338.0615" y="98.8594"/></g><g><title>dependencies</title><rect fill="#282828" height="58.2656" style="stroke:#33FF33;stroke-width:1;" width="10" x="493.3418" y="127.9922"/></g><g><title>crud</title><rect fill="#282828" height="58.2656" style="stroke:#33FF33;stroke-width:1;" width="10" x="637.5605" y="215.3906"/></g><g><title>crud</title><rect fill="#282828" height="440.4688" style="stroke:#33FF33;stroke-width:1;" width="10" x="637.5605" y="370.8594"/></g><g><title>Database</title><rect fill="#282828" height="733.4688" style="stroke:#33FF33;stroke-width:1;" width="10" x="903.4531" y="157.125"/></g><polygon fill="#33FF33" points="326.0615,94.8594,336.0615,98.8594,326.0615,102.8594,330.0615,98.8594" style="stroke:#33FF33;stroke-width:1;"/><line style="stroke:#33FF33;stroke-width:1;" x1="93.5547" x2="332.0615" y1="98.8594" y2="98.8594"/><text fill="#33FF33" font-family="Verdana" font-size="13" lengthAdjust="spacing" textLength="142.6064" x="100.5547" y="78.6606">POST /api/tracker/123</text><text fill="#33FF33" font-family="Verdana" font-size="13" lengthAdjust="spacing" textLength="225.5068" x="100.5547" y="93.7935">TrackerUpdateModel{resource: 5}</text><polygon fill="#33FF33" points="481.3418,123.9922,491.3418,127.9922,481.3418,131.9922,485.3418,127.9922" style="stroke:#33FF33;stroke-width:1;"/><line style="stroke:#33FF33;stroke-width:1;" x1="348.0615" x2="487.3418" y1="127.9922" y2="127.9922"/><text fill="#33FF33" font-family="Verdana" font-size="13" lengthAdjust="spacing" textLength="126.2803" x="355.0615" y="122.9263">Request db session</text><polygon fill="#33FF33" points="891.4531,153.125,901.4531,157.125,891.4531,161.125,895.4531,157.125" style="stroke:#33FF33;stroke-width:1;"/><line style="stroke:#33FF33;stroke-width:1;" x1="503.3418" x2="897.4531" y1="157.125" y2="157.125"/><text fill="#33FF33" font-family="Verdana" font-size="13" lengthAdjust="spacing" textLength="93.666" x="510.3418" y="152.0591">SessionLocal()</text><polygon fill="#33FF33" points="359.0615,182.2578,349.0615,186.2578,359.0615,190.2578,355.0615,186.2578" style="stroke:#33FF33;stroke-width:1;"/><line style="stroke:#33FF33;stroke-width:1;stroke-dasharray:2.0,2.0;" x1="353.0615" x2="497.3418" y1="186.2578" y2="186.2578"/><text fill="#33FF33" font-family="Verdana" font-size="13" lengthAdjust="spacing" textLength="104.0571" x="365.0615" y="181.1919">yield db session</text><polygon fill="#33FF33" points="625.5605,211.3906,635.5605,215.3906,625.5605,219.3906,629.5605,215.3906" style="stroke:#33FF33;stroke-width:1;"/><line style="stroke:#33FF33;stroke-width:1;" x1="348.0615" x2="631.5605" y1="215.3906" y2="215.3906"/><text fill="#33FF33" font-family="Verdana" font-size="13" lengthAdjust="spacing" textLength="174.8081" x="355.0615" y="210.3247">get_tracker_by_id(db, 123)</text><polygon fill="#33FF33" points="891.4531,240.5234,901.4531,244.5234,891.4531,248.5234,895.4531,244.5234" style="stroke:#33FF33;stroke-width:1;"/><line style="stroke:#33FF33;stroke-width:1;" x1="647.5605" x2="897.4531" y1="244.5234" y2="244.5234"/><text fill="#33FF33" font-family="Verdana" font-size="13" lengthAdjust="spacing" textLength="206.2671" x="654.5605" y="239.4575">SELECT Tracker WHERE id=123</text><polygon fill="#33FF33" points="653.5605,269.6563,643.5605,273.6563,653.5605,277.6563,649.5605,273.6563" style="stroke:#33FF33;stroke-width:1;"/><line style="stroke:#33FF33;stroke-width:1;stroke-dasharray:2.0,2.0;" x1="647.5605" x2="902.4531" y1="273.6563" y2="273.6563"/><text fill="#33FF33" font-family="Verdana" font-size="13" lengthAdjust="spacing" textLength="104.749" x="659.5605" y="268.5903">Tracker or None</text><path d="M15,288.6563 L79.4429,288.6563 L79.4429,295.7891 L69.4429,305.7891 L15,305.7891 L15,288.6563 " fill="#33FF33" style="stroke:#33FF33;stroke-width:1;"/><rect fill="transparent" height="573.8047" style="stroke:#33FF33;stroke-width:1;" width="973.8535" x="15" y="288.6563"/><text fill="#282828" font-family="Verdana" font-size="13" font-weight="bold" lengthAdjust="spacing" textLength="19.4429" x="30" y="301.7231">alt</text><text fill="#33FF33" font-family="Verdana" font-size="11" font-weight="bold" lengthAdjust="spacing" textLength="121.3115" x="94.4429" y="300.8667">[Tracker not found]</text><polygon fill="#33FF33" points="104.5547,322.9219,94.5547,326.9219,104.5547,330.9219,100.5547,326.9219" style="stroke:#33FF33;stroke-width:1;"/><line style="stroke:#33FF33;stroke-width:1;stroke-dasharray:2.0,2.0;" x1="98.5547" x2="337.0615" y1="326.9219" y2="326.9219"/><text fill="#33FF33" font-family="Verdana" font-size="13" lengthAdjust="spacing" textLength="96.0146" x="110.5547" y="321.856">404 Not Found</text><line style="stroke:#33FF33;stroke-width:1;stroke-dasharray:2.0,2.0;" x1="15" x2="988.8535" y1="335.9219" y2="335.9219"/><text fill="#33FF33" font-family="Verdana" font-size="11" font-weight="bold" lengthAdjust="spacing" textLength="96.8354" x="20" y="346.1323">[Tracker found]</text><polygon fill="#33FF33" points="625.5605,366.8594,635.5605,370.8594,625.5605,374.8594,629.5605,370.8594" style="stroke:#33FF33;stroke-width:1;"/><line style="stroke:#33FF33;stroke-width:1;" x1="348.0615" x2="631.5605" y1="370.8594" y2="370.8594"/><text fill="#33FF33" font-family="Verdana" font-size="13" lengthAdjust="spacing" textLength="270.499" x="355.0615" y="365.7935">update_tracker_resource(db, 123, model)</text><line style="stroke:#33FF33;stroke-width:1;" x1="647.5605" x2="689.5605" y1="399.9922" y2="399.9922"/><line style="stroke:#33FF33;stroke-width:1;" x1="689.5605" x2="689.5605" y1="399.9922" y2="412.9922"/><line style="stroke:#33FF33;stroke-width:1;" x1="648.5605" x2="689.5605" y1="412.9922" y2="412.9922"/><polygon fill="#33FF33" points="658.5605,408.9922,648.5605,412.9922,658.5605,416.9922,654.5605,412.9922" style="stroke:#33FF33;stroke-width:1;"/><text fill="#33FF33" font-family="Verdana" font-size="13" lengthAdjust="spacing" textLength="168.6382" x="654.5605" y="394.9263">get_resource_by_id(db, 5)</text><polygon fill="#33FF33" points="891.4531,438.125,901.4531,442.125,891.4531,446.125,895.4531,442.125" style="stroke:#33FF33;stroke-width:1;"/><line style="stroke:#33FF33;stroke-width:1;" x1="647.5605" x2="897.4531" y1="442.125" y2="442.125"/><text fill="#33FF33" font-family="Verdana" font-size="13" lengthAdjust="spacing" textLength="200.9414" x="654.5605" y="437.0591">SELECT Resource WHERE id=5</text><polygon fill="#33FF33" points="658.5605,467.2578,648.5605,471.2578,658.5605,475.2578,654.5605,471.2578" style="stroke:#33FF33;stroke-width:1;"/><line style="stroke:#33FF33;stroke-width:1;stroke-dasharray:2.0,2.0;" x1="652.5605" x2="902.4531" y1="471.2578" y2="471.2578"/><text fill="#33FF33" font-family="Verdana" font-size="13" lengthAdjust="spacing" textLength="115.9653" x="664.5605" y="466.1919">Resource or None</text><path d="M25,486.2578 L89.4429,486.2578 L89.4429,493.3906 L79.4429,503.3906 L25,503.3906 L25,486.2578 " fill="#33FF33" style="stroke:#33FF33;stroke-width:1;"/><rect fill="transparent" height="369.2031" style="stroke:#33FF33;stroke-width:1;" width="953.8535" x="25" y="486.2578"/><text fill="#282828" font-family="Verdana" font-size="13" font-weight="bold" lengthAdjust="spacing" textLength="19.4429" x="40" y="499.3247">alt</text><text fill="#33FF33" font-family="Verdana" font-size="11" font-weight="bold" lengthAdjust="spacing" textLength="131.5112" x="104.4429" y="498.4683">[Resource not found]</text><polygon fill="#33FF33" points="359.0615,520.5234,349.0615,524.5234,359.0615,528.5234,355.0615,524.5234" style="stroke:#33FF33;stroke-width:1;"/><line style="stroke:#33FF33;stroke-width:1;stroke-dasharray:2.0,2.0;" x1="353.0615" x2="636.5605" y1="524.5234" y2="524.5234"/><text fill="#33FF33" font-family="Verdana" font-size="13" lengthAdjust="spacing" textLength="33.9155" x="365.0615" y="519.4575">None</text><polygon fill="#33FF33" points="104.5547,549.6563,94.5547,553.6563,104.5547,557.6563,100.5547,553.6563" style="stroke:#33FF33;stroke-width:1;"/><line style="stroke:#33FF33;stroke-width:1;stroke-dasharray:2.0,2.0;" x1="98.5547" x2="337.0615" y1="553.6563" y2="553.6563"/><text fill="#33FF33" font-family="Verdana" font-size="13" lengthAdjust="spacing" textLength="95.6655" x="110.5547" y="548.5903">Error response</text><line style="stroke:#33FF33;stroke-width:1;stroke-dasharray:2.0,2.0;" x1="25" x2="978.8535" y1="562.6563" y2="562.6563"/><text fill="#33FF33" font-family="Verdana" font-size="11" font-weight="bold" lengthAdjust="spacing" textLength="107.0352" x="30" y="572.8667">[Resource found]</text><polygon fill="#33FF33" points="891.4531,593.5938,901.4531,597.5938,891.4531,601.5938,895.4531,597.5938" style="stroke:#33FF33;stroke-width:1;"/><line style="stroke:#33FF33;stroke-width:1;" x1="647.5605" x2="897.4531" y1="597.5938" y2="597.5938"/><text fill="#33FF33" font-family="Verdana" font-size="13" lengthAdjust="spacing" textLength="231.8926" x="654.5605" y="592.5278">Check if Resource already assigned</text><polygon fill="#33FF33" points="658.5605,622.7266,648.5605,626.7266,658.5605,630.7266,654.5605,626.7266" style="stroke:#33FF33;stroke-width:1;"/><line style="stroke:#33FF33;stroke-width:1;stroke-dasharray:2.0,2.0;" x1="652.5605" x2="902.4531" y1="626.7266" y2="626.7266"/><text fill="#33FF33" font-family="Verdana" font-size="13" lengthAdjust="spacing" textLength="223.4565" x="664.5605" y="621.6606">List of Trackers with resourceId=5</text><path d="M35,641.7266 L99.4429,641.7266 L99.4429,648.8594 L89.4429,658.8594 L35,658.8594 L35,641.7266 " fill="#33FF33" style="stroke:#33FF33;stroke-width:1;"/><rect fill="transparent" height="206.7344" style="stroke:#33FF33;stroke-width:1;" width="933.8535" x="35" y="641.7266"/><text fill="#282828" font-family="Verdana" font-size="13" font-weight="bold" lengthAdjust="spacing" textLength="19.4429" x="50" y="654.7935">alt</text><text fill="#33FF33" font-family="Verdana" font-size="11" font-weight="bold" lengthAdjust="spacing" textLength="176.8594" x="114.4429" y="653.937">[Resource already assigned]</text><polygon fill="#33FF33" points="359.0615,675.9922,349.0615,679.9922,359.0615,683.9922,355.0615,679.9922" style="stroke:#33FF33;stroke-width:1;"/><line style="stroke:#33FF33;stroke-width:1;stroke-dasharray:2.0,2.0;" x1="353.0615" x2="636.5605" y1="679.9922" y2="679.9922"/><text fill="#33FF33" font-family="Verdana" font-size="13" lengthAdjust="spacing" textLength="33.9155" x="365.0615" y="674.9263">None</text><polygon fill="#33FF33" points="104.5547,705.125,94.5547,709.125,104.5547,713.125,100.5547,709.125" style="stroke:#33FF33;stroke-width:1;"/><line style="stroke:#33FF33;stroke-width:1;stroke-dasharray:2.0,2.0;" x1="98.5547" x2="337.0615" y1="709.125" y2="709.125"/><text fill="#33FF33" font-family="Verdana" font-size="13" lengthAdjust="spacing" textLength="144.3267" x="110.5547" y="704.0591">Error: Resource in use</text><line style="stroke:#33FF33;stroke-width:1;stroke-dasharray:2.0,2.0;" x1="35" x2="968.8535" y1="718.125" y2="718.125"/><text fill="#33FF33" font-family="Verdana" font-size="11" font-weight="bold" lengthAdjust="spacing" textLength="127.2412" x="40" y="728.3354">[Resource available]</text><polygon fill="#33FF33" points="891.4531,749.0625,901.4531,753.0625,891.4531,757.0625,895.4531,753.0625" style="stroke:#33FF33;stroke-width:1;"/><line style="stroke:#33FF33;stroke-width:1;" x1="647.5605" x2="897.4531" y1="753.0625" y2="753.0625"/><text fill="#33FF33" font-family="Verdana" font-size="13" lengthAdjust="spacing" textLength="226.5352" x="654.5605" y="747.9966">UPDATE Tracker SET resourceId=5</text><polygon fill="#33FF33" points="658.5605,778.1953,648.5605,782.1953,658.5605,786.1953,654.5605,782.1953" style="stroke:#33FF33;stroke-width:1;"/><line style="stroke:#33FF33;stroke-width:1;stroke-dasharray:2.0,2.0;" x1="652.5605" x2="902.4531" y1="782.1953" y2="782.1953"/><text fill="#33FF33" font-family="Verdana" font-size="13" lengthAdjust="spacing" textLength="108.7354" x="664.5605" y="777.1294">Updated Tracker</text><polygon fill="#33FF33" points="359.0615,807.3281,349.0615,811.3281,359.0615,815.3281,355.0615,811.3281" style="stroke:#33FF33;stroke-width:1;"/><line style="stroke:#33FF33;stroke-width:1;stroke-dasharray:2.0,2.0;" x1="353.0615" x2="641.5605" y1="811.3281" y2="811.3281"/><text fill="#33FF33" font-family="Verdana" font-size="13" lengthAdjust="spacing" textLength="49.2705" x="365.0615" y="806.2622">Tracker</text><polygon fill="#33FF33" points="104.5547,836.4609,94.5547,840.4609,104.5547,844.4609,100.5547,840.4609" style="stroke:#33FF33;stroke-width:1;"/><line style="stroke:#33FF33;stroke-width:1;stroke-dasharray:2.0,2.0;" x1="98.5547" x2="337.0615" y1="840.4609" y2="840.4609"/><text fill="#33FF33" font-family="Verdana" font-size="13" lengthAdjust="spacing" textLength="134.6211" x="110.5547" y="835.395">TrackerModel (JSON)</text><polygon fill="#33FF33" points="896.4531,886.5938,906.4531,890.5938,896.4531,894.5938,900.4531,890.5938" style="stroke:#33FF33;stroke-width:1;"/><line style="stroke:#33FF33;stroke-width:1;" x1="498.3418" x2="902.4531" y1="890.5938" y2="890.5938"/><text fill="#33FF33" font-family="Verdana" font-size="13" lengthAdjust="spacing" textLength="85.7378" x="505.3418" y="885.5278">close session</text><!--SRC=[bLHTQzim57tthxZhon9eoROqBuOEkiJP1rrR4eUz189itIIYhfJ9SaSe_U-LP5d-gCCsWstGFVVUSuwa-qxjyH4XbUfY9n5v4Bo7gtzyD7I9lmlaAS8uXEiyPpiE2yn58VMI4X1BaZwW_9-Q1o8LIzc1S0LdSocuGaxFWEGmZzf1LHRVI54eb6i-8WSsSekZPqPVR5QyQ6THFEY2cZF3VCrtg3Oq6Gmjz2kgsPTn6vxAekm-NQncdTYCA9AG76tSP0Rp22u-wvOXtDyjOsWn-lXflEREaDM14eK_1SNiMJg_GfYy12HLx4c73EqWNfXg9QjG-wgjpXNG17BKLWjUentpycUIRCQoXDs8b6I3OOrkGXtT8yECDajJx1PtTAmF8HZZgWr8ZXj61pGv1wsnqQUqp7vhJj5DD8shWm6_laMB21Yzqfb1HSYrg312mgtWsAHKLWv8fZoA2mLRKN0QW7uCLrrf7eLm-U5IvokOso1cEVgSDjutBkpkU7dL1bKAp-7HRDpG9dOecINxyQeRVbM56ePDXcrqqoD_aRn94mlksEHXbK-UWx77Hzl-D9gw4-1JE_P5Kkh2clf1yBn4M0zzuTwYJibqZ-a3i6sD9fb4Ge_wnfXXWNLYHzKDqqTTRAkjok4FKtke7FnUUU6rlj5xij5VfFV9RvZCE1HvZMvRGPu8oqYIOLypPydgVdOTH_u8BgEuNrMF9-NKe7wgdbRKXtXpVKueThbsEC7Wn_BkTbZBTJjj_kPjtaaziJhp9ys4TgTdekZeAm00]--></g></svg>