<svg xmlns="http://www.w3.org/2000/svg" xmlns:xlink="http://www.w3.org/1999/xlink" contentStyleType="text/css" data-diagram-type="SEQUENCE" height="520px" preserveAspectRatio="none" style="width:711px;height:520px;background:#282828;" version="1.1" viewBox="0 0 711 520" width="711px" zoomAndPan="magnify"><defs/><g><rect fill="#282828" height="520" style="stroke:transparent;stroke-width:1;" width="711" x="0" y="0"/><g><title>mcp_router</title><rect fill="#282828" height="360.5313" style="stroke:#33FF33;stroke-width:1;" width="10" x="262.6509" y="98.8594"/></g><g><title>MCP Server</title><rect fill="#282828" height="53.2656" style="stroke:#33FF33;stroke-width:1;" width="10" x="498.2905" y="200.3906"/></g><rect fill="#282828" height="237" style="stroke:#33FF33;stroke-width:1;" width="689.3203" x="15" y="215.3906"/><rect fill="#282828" height="88.2031" style="stroke:transparent;stroke-width:1;" width="689.3203" x="15" y="364.1875"/><g><title>Frontend</title><rect fill="transparent" height="416.7969" width="8" x="69.5547" y="52.5938"/><line style="stroke:#33FF33;stroke-width:1;" x1="73" x2="73" y1="52.5938" y2="469.3906"/></g><g><title>mcp_router</title><rect fill="transparent" height="416.7969" width="8" x="263.6509" y="52.5938"/><line style="stroke:#33FF33;stroke-width:1;" x1="267.4834" x2="267.4834" y1="52.5938" y2="469.3906"/></g><g><title>MCP Server</title><rect fill="transparent" height="416.7969" width="8" x="499.2905" y="52.5938"/><line style="stroke:#33FF33;stroke-width:1;" x1="502.9619" x2="502.9619" y1="52.5938" y2="469.3906"/></g><g><title>Environment</title><rect fill="transparent" height="416.7969" width="8" x="628.4697" y="52.5938"/><line style="stroke:#33FF33;stroke-width:1;" x1="631.6191" x2="631.6191" y1="52.5938" y2="469.3906"/></g><rect fill="#282828" height="30.2969" rx="2.5" ry="2.5" style="stroke:#33FF33;stroke-width:1;" width="77.1094" x="35" y="21.2969"/><text fill="#33FF33" font-family="Verdana" font-size="14" lengthAdjust="spacing" textLength="63.1094" x="42" y="41.292">Frontend</text><rect fill="#282828" height="30.2969" rx="2.5" ry="2.5" style="stroke:#33FF33;stroke-width:1;" width="77.1094" x="35" y="468.3906"/><text fill="#33FF33" font-family="Verdana" font-size="14" lengthAdjust="spacing" textLength="63.1094" x="42" y="488.3857">Frontend</text><rect fill="#282828" height="46.5938" rx="2.5" ry="2.5" style="stroke:#33FF33;stroke-width:1;" width="112.335" x="211.4834" y="5"/><text fill="#33FF33" font-family="Verdana" font-size="14" lengthAdjust="spacing" textLength="80.2744" x="227.5137" y="24.9951">mcp_router</text><text fill="#33FF33" font-family="Verdana" font-size="14" lengthAdjust="spacing" textLength="98.335" x="218.4834" y="41.292">/api/mcp/start</text><rect fill="#282828" height="46.5938" rx="2.5" ry="2.5" style="stroke:#33FF33;stroke-width:1;" width="112.335" x="211.4834" y="468.3906"/><text fill="#33FF33" font-family="Verdana" font-size="14" lengthAdjust="spacing" textLength="80.2744" x="227.5137" y="488.3857">mcp_router</text><text fill="#33FF33" font-family="Verdana" font-size="14" lengthAdjust="spacing" textLength="98.335" x="218.4834" y="504.6826">/api/mcp/start</text><rect fill="#282828" height="30.2969" rx="2.5" ry="2.5" style="stroke:#33FF33;stroke-width:1;" width="94.6572" x="455.9619" y="21.2969"/><text fill="#33FF33" font-family="Verdana" font-size="14" lengthAdjust="spacing" textLength="80.6572" x="462.9619" y="41.292">MCP Server</text><rect fill="#282828" height="30.2969" rx="2.5" ry="2.5" style="stroke:#33FF33;stroke-width:1;" width="94.6572" x="455.9619" y="468.3906"/><text fill="#33FF33" font-family="Verdana" font-size="14" lengthAdjust="spacing" textLength="80.6572" x="462.9619" y="488.3857">MCP Server</text><rect fill="#282828" height="30.2969" rx="2.5" ry="2.5" style="stroke:#33FF33;stroke-width:1;" width="103.7012" x="580.6191" y="21.2969"/><text fill="#33FF33" font-family="Verdana" font-size="14" lengthAdjust="spacing" textLength="89.7012" x="587.6191" y="41.292">Environment</text><rect fill="#282828" height="30.2969" rx="2.5" ry="2.5" style="stroke:#33FF33;stroke-width:1;" width="103.7012" x="580.6191" y="468.3906"/><text fill="#33FF33" font-family="Verdana" font-size="14" lengthAdjust="spacing" textLength="89.7012" x="587.6191" y="488.3857">Environment</text><g><title>mcp_router</title><rect fill="#282828" height="360.5313" style="stroke:#33FF33;stroke-width:1;" width="10" x="262.6509" y="98.8594"/></g><g><title>MCP Server</title><rect fill="#282828" height="53.2656" style="stroke:#33FF33;stroke-width:1;" width="10" x="498.2905" y="200.3906"/></g><polygon fill="#33FF33" points="250.6509,94.8594,260.6509,98.8594,250.6509,102.8594,254.6509,98.8594" style="stroke:#33FF33;stroke-width:1;"/><line style="stroke:#33FF33;stroke-width:1;" x1="73.5547" x2="256.6509" y1="98.8594" y2="98.8594"/><text fill="#33FF33" font-family="Verdana" font-size="13" lengthAdjust="spacing" textLength="129.708" x="80.5547" y="78.6606">POST /api/mcp/start</text><text fill="#33FF33" font-family="Verdana" font-size="13" lengthAdjust="spacing" textLength="161.3955" x="80.5547" y="93.7935">MCPConfig{url, api_key}</text><line style="stroke:#33FF33;stroke-width:1;" x1="272.6509" x2="314.6509" y1="143.125" y2="143.125"/><line style="stroke:#33FF33;stroke-width:1;" x1="314.6509" x2="314.6509" y1="143.125" y2="156.125"/><line style="stroke:#33FF33;stroke-width:1;" x1="273.6509" x2="314.6509" y1="156.125" y2="156.125"/><polygon fill="#33FF33" points="283.6509,152.125,273.6509,156.125,283.6509,160.125,279.6509,156.125" style="stroke:#33FF33;stroke-width:1;"/><text fill="#33FF33" font-family="Verdana" font-size="13" lengthAdjust="spacing" textLength="81.5229" x="279.6509" y="122.9263">Sanitize URL</text><text fill="#33FF33" font-family="Verdana" font-size="13" lengthAdjust="spacing" textLength="201.6396" x="279.6509" y="138.0591">(add https://, remove trailing /)</text><polygon fill="#33FF33" points="486.2905,196.3906,496.2905,200.3906,486.2905,204.3906,490.2905,200.3906" style="stroke:#33FF33;stroke-width:1;"/><line style="stroke:#33FF33;stroke-width:1;" x1="272.6509" x2="492.2905" y1="200.3906" y2="200.3906"/><text fill="#33FF33" font-family="Verdana" font-size="13" lengthAdjust="spacing" textLength="106.5645" x="279.6509" y="180.1919">GET /api/version</text><text fill="#33FF33" font-family="Verdana" font-size="13" lengthAdjust="spacing" textLength="122.8208" x="279.6509" y="195.3247">(verify connection)</text><path d="M15,215.3906 L79.4429,215.3906 L79.4429,222.5234 L69.4429,232.5234 L15,232.5234 L15,215.3906 " fill="#33FF33" style="stroke:#33FF33;stroke-width:1;"/><rect fill="transparent" height="237" style="stroke:#33FF33;stroke-width:1;" width="689.3203" x="15" y="215.3906"/><text fill="#282828" font-family="Verdana" font-size="13" font-weight="bold" lengthAdjust="spacing" textLength="19.4429" x="30" y="228.4575">alt</text><text fill="#33FF33" font-family="Verdana" font-size="11" font-weight="bold" lengthAdjust="spacing" textLength="142.7744" x="94.4429" y="227.6011">[MCP Server responds]</text><polygon fill="#33FF33" points="283.6509,249.6563,273.6509,253.6563,283.6509,257.6563,279.6509,253.6563" style="stroke:#33FF33;stroke-width:1;"/><line style="stroke:#33FF33;stroke-width:1;stroke-dasharray:2.0,2.0;" x1="277.6509" x2="502.2905" y1="253.6563" y2="253.6563"/><text fill="#33FF33" font-family="Verdana" font-size="13" lengthAdjust="spacing" textLength="47.7026" x="289.6509" y="248.5903">200 OK</text><polygon fill="#33FF33" points="620.4697,293.9219,630.4697,297.9219,620.4697,301.9219,624.4697,297.9219" style="stroke:#33FF33;stroke-width:1;"/><line style="stroke:#33FF33;stroke-width:1;" x1="272.6509" x2="626.4697" y1="297.9219" y2="297.9219"/><text fill="#33FF33" font-family="Verdana" font-size="13" lengthAdjust="spacing" textLength="171.9072" x="279.6509" y="277.7231">Set environment variables</text><text fill="#33FF33" font-family="Verdana" font-size="13" lengthAdjust="spacing" textLength="259.1812" x="279.6509" y="292.856">MCP_URL, MCP_API_KEY, MCP_ENABLED</text><polygon fill="#33FF33" points="283.6509,323.0547,273.6509,327.0547,283.6509,331.0547,279.6509,327.0547" style="stroke:#33FF33;stroke-width:1;"/><line style="stroke:#33FF33;stroke-width:1;stroke-dasharray:2.0,2.0;" x1="277.6509" x2="631.4697" y1="327.0547" y2="327.0547"/><text fill="#33FF33" font-family="Verdana" font-size="13" lengthAdjust="spacing" textLength="84.4175" x="289.6509" y="321.9888">Variables set</text><polygon fill="#33FF33" points="84.5547,352.1875,74.5547,356.1875,84.5547,360.1875,80.5547,356.1875" style="stroke:#33FF33;stroke-width:1;"/><line style="stroke:#33FF33;stroke-width:1;stroke-dasharray:2.0,2.0;" x1="78.5547" x2="261.6509" y1="356.1875" y2="356.1875"/><text fill="#33FF33" font-family="Verdana" font-size="13" lengthAdjust="spacing" textLength="101.772" x="90.5547" y="351.1216">{"status": 200}</text><line style="stroke:#33FF33;stroke-width:1;stroke-dasharray:2.0,2.0;" x1="15" x2="704.3203" y1="365.1875" y2="365.1875"/><text fill="#33FF33" font-family="Verdana" font-size="11" font-weight="bold" lengthAdjust="spacing" textLength="186.189" x="20" y="375.3979">[MCP Server error or timeout]</text><polygon fill="#33FF33" points="283.6509,396.125,273.6509,400.125,283.6509,404.125,279.6509,400.125" style="stroke:#33FF33;stroke-width:1;"/><line style="stroke:#33FF33;stroke-width:1;stroke-dasharray:2.0,2.0;" x1="277.6509" x2="502.2905" y1="400.125" y2="400.125"/><text fill="#33FF33" font-family="Verdana" font-size="13" lengthAdjust="spacing" textLength="98.3506" x="289.6509" y="395.0591">Error / Timeout</text><polygon fill="#33FF33" points="84.5547,440.3906,74.5547,444.3906,84.5547,448.3906,80.5547,444.3906" style="stroke:#33FF33;stroke-width:1;"/><line style="stroke:#33FF33;stroke-width:1;stroke-dasharray:2.0,2.0;" x1="78.5547" x2="261.6509" y1="444.3906" y2="444.3906"/><text fill="#33FF33" font-family="Verdana" font-size="13" lengthAdjust="spacing" textLength="111.6045" x="90.5547" y="424.1919">400 Bad Request</text><text fill="#33FF33" font-family="Verdana" font-size="13" lengthAdjust="spacing" textLength="165.0962" x="90.5547" y="439.3247">"MCP server not running"</text><!--SRC=[bL9HQzim47xNhxZvPIiak8JjnR12sxbZj5j3qWq60QFPrrJCFdcdiw4h_UyxoqiJbpvimXX9zzttVNUwLtA73KB9Cjyo8Xdp6jx_urBe6dzrI2N2kmm-do_XtDEjstPinNdw7whMihZIjPO4aWls94XL0ZR0HRwOHfkoBTXtWhoXrBOkrOiqY48YNcsifWc3iJLoZxm3F6FCgNSgsI2D57esHdLXVXBfCbXUhszWAhOX3OtrFdHSpq2ZnK-yVpIs5DTRmT6A6VvxfhKb9-utmjVLrORUsAg2Ev4sP6aw0yR6zmZ2rjMEjf0UJT8N6NpC__hGQeBsM2bqvsxleVH4M0vzFveuM1XZQu5z4rGbj9wgO43NW83vaxt5yJ5SNyP8XLEQuMwN4XrfcxGU5C1z_w2txEoF6aFiJw5LpeQ4udJvgRZClu-7_ClfsLN-8R8fou7-jrqw19JdaehILydW8T4Na2uaqU-ZmJhWOO78x1dq4zUWJifBXUOHayBD0UIbYgVARxKzPxQ2rJ3tGMSW3bSOPSaBS4UaBvSO7LzZfeIhFm00]--></g></svg>