<svg xmlns="http://www.w3.org/2000/svg" xmlns:xlink="http://www.w3.org/1999/xlink" contentStyleType="text/css" data-diagram-type="SEQUENCE" height="1098px" preserveAspectRatio="none" style="width:1199px;height:1098px;background:#282828;" version="1.1" viewBox="0 0 1199 1098" width="1199px" zoomAndPan="magnify"><defs/><g><rect fill="#282828" height="1098" style="stroke:transparent;stroke-width:1;" width="1199" x="0" y="0"/><g><title>tasks</title><rect fill="#282828" height="953.5313" style="stroke:#33FF33;stroke-width:1;" width="10" x="330.8188" y="83.7266"/></g><g><title>dependencies</title><rect fill="#282828" height="58.2656" style="stroke:#33FF33;stroke-width:1;" width="10" x="478.5234" y="239.1953"/></g><g><title>Settings</title><rect fill="#282828" height="29.1328" style="stroke:#33FF33;stroke-width:1;" width="10" x="604.1001" y="112.8594"/></g><g><title>MCP Server</title><rect fill="#282828" height="29.1328" style="stroke:#33FF33;stroke-width:1;" width="10" x="724.7378" y="408.9922"/></g><g><title>MCP Server</title><rect fill="#282828" height="29.1328" style="stroke:#33FF33;stroke-width:1;" width="10" x="724.7378" y="639.8594"/></g><g><title>crud</title><rect fill="#282828" height="58.2656" style="stroke:#33FF33;stroke-width:1;" width="10" x="832.271" y="722.2578"/></g><g><title>crud</title><rect fill="#282828" height="58.2656" style="stroke:#33FF33;stroke-width:1;" width="10" x="832.271" y="833.7891"/></g><g><title>crud</title><rect fill="#282828" height="58.2656" style="stroke:#33FF33;stroke-width:1;" width="10" x="832.271" y="935.9922"/></g><g><title>Database</title><rect fill="#282828" height="761.9297" style="stroke:#33FF33;stroke-width:1;" width="10" x="1087.2837" y="268.3281"/></g><rect fill="#282828" height="873.2656" style="stroke:#33FF33;stroke-width:1;" width="1177.6841" x="15" y="156.9922"/><rect fill="#282828" height="827" style="stroke:transparent;stroke-width:1;" width="1177.6841" x="15" y="203.2578"/><rect fill="#282828" height="652.5313" style="stroke:#33FF33;stroke-width:1;" width="958.6997" x="223.9844" y="370.7266"/><rect fill="#282828" height="46.2656" style="stroke:#33FF33;stroke-width:1;" width="898.6997" x="253.9844" y="453.125"/><rect fill="#282828" height="516.8672" style="stroke:transparent;stroke-width:1;" width="958.6997" x="223.9844" y="506.3906"/><rect fill="#282828" height="429.7969" style="stroke:#33FF33;stroke-width:1;" width="938.6997" x="233.9844" y="586.4609"/><rect fill="#282828" height="325.2656" style="stroke:#33FF33;stroke-width:1;" width="918.6997" x="243.9844" y="683.9922"/><rect fill="#282828" height="206.7344" style="stroke:#33FF33;stroke-width:1;" width="898.6997" x="253.9844" y="795.5234"/><rect fill="#282828" height="102.2031" style="stroke:transparent;stroke-width:1;" width="898.6997" x="253.9844" y="900.0547"/><g><title>FastAPI</title><rect fill="transparent" height="994.6641" width="8" x="73.0444" y="52.5938"/><line style="stroke:#33FF33;stroke-width:1;" x1="77" x2="77" y1="52.5938" y2="1047.2578"/></g><g><title>tasks</title><rect fill="transparent" height="994.6641" width="8" x="331.8188" y="52.5938"/><line style="stroke:#33FF33;stroke-width:1;" x1="334.9844" x2="334.9844" y1="52.5938" y2="1047.2578"/></g><g><title>dependencies</title><rect fill="transparent" height="994.6641" width="8" x="479.5234" y="52.5938"/><line style="stroke:#33FF33;stroke-width:1;" x1="482.6533" x2="482.6533" y1="52.5938" y2="1047.2578"/></g><g><title>Settings</title><rect fill="transparent" height="994.6641" width="8" x="605.1001" y="52.5938"/><line style="stroke:#33FF33;stroke-width:1;" x1="608.3892" x2="608.3892" y1="52.5938" y2="1047.2578"/></g><g><title>MCP Server</title><rect fill="transparent" height="994.6641" width="8" x="725.7378" y="52.5938"/><line style="stroke:#33FF33;stroke-width:1;" x1="728.811" x2="728.811" y1="52.5938" y2="1047.2578"/></g><g><title>crud</title><rect fill="transparent" height="994.6641" width="8" x="833.271" y="52.5938"/><line style="stroke:#33FF33;stroke-width:1;" x1="836.6646" x2="836.6646" y1="52.5938" y2="1047.2578"/></g><g><title>Database</title><rect fill="transparent" height="994.6641" width="8" x="1088.2837" y="52.5938"/><line style="stroke:#33FF33;stroke-width:1;" x1="1091.8833" x2="1091.8833" y1="52.5938" y2="1047.2578"/></g><rect fill="#282828" height="46.5938" rx="2.5" ry="2.5" style="stroke:#33FF33;stroke-width:1;" width="84.0889" x="35" y="5"/><text fill="#33FF33" font-family="Verdana" font-size="14" lengthAdjust="spacing" textLength="51.5635" x="51.2627" y="24.9951">FastAPI</text><text fill="#33FF33" font-family="Verdana" font-size="14" lengthAdjust="spacing" textLength="70.0889" x="42" y="41.292">Scheduler</text><rect fill="#282828" height="46.5938" rx="2.5" ry="2.5" style="stroke:#33FF33;stroke-width:1;" width="84.0889" x="35" y="1046.2578"/><text fill="#33FF33" font-family="Verdana" font-size="14" lengthAdjust="spacing" textLength="51.5635" x="51.2627" y="1066.2529">FastAPI</text><text fill="#33FF33" font-family="Verdana" font-size="14" lengthAdjust="spacing" textLength="70.0889" x="42" y="1082.5498">Scheduler</text><rect fill="#282828" height="46.5938" rx="2.5" ry="2.5" style="stroke:#33FF33;stroke-width:1;" width="123.6689" x="273.9844" y="5"/><text fill="#33FF33" font-family="Verdana" font-size="14" lengthAdjust="spacing" textLength="36.7637" x="317.437" y="24.9951">tasks</text><text fill="#33FF33" font-family="Verdana" font-size="14" lengthAdjust="spacing" textLength="109.6689" x="280.9844" y="41.292">get_mcp_data()</text><rect fill="#282828" height="46.5938" rx="2.5" ry="2.5" style="stroke:#33FF33;stroke-width:1;" width="123.6689" x="273.9844" y="1046.2578"/><text fill="#33FF33" font-family="Verdana" font-size="14" lengthAdjust="spacing" textLength="36.7637" x="317.437" y="1066.2529">tasks</text><text fill="#33FF33" font-family="Verdana" font-size="14" lengthAdjust="spacing" textLength="109.6689" x="280.9844" y="1082.5498">get_mcp_data()</text><rect fill="#282828" height="46.5938" rx="2.5" ry="2.5" style="stroke:#33FF33;stroke-width:1;" width="111.7402" x="427.6533" y="5"/><text fill="#33FF33" font-family="Verdana" font-size="14" lengthAdjust="spacing" textLength="97.7402" x="434.6533" y="24.9951">dependencies</text><text fill="#33FF33" font-family="Verdana" font-size="14" lengthAdjust="spacing" textLength="58.6865" x="454.1802" y="41.292">get_db()</text><rect fill="#282828" height="46.5938" rx="2.5" ry="2.5" style="stroke:#33FF33;stroke-width:1;" width="111.7402" x="427.6533" y="1046.2578"/><text fill="#33FF33" font-family="Verdana" font-size="14" lengthAdjust="spacing" textLength="97.7402" x="434.6533" y="1066.2529">dependencies</text><text fill="#33FF33" font-family="Verdana" font-size="14" lengthAdjust="spacing" textLength="58.6865" x="454.1802" y="1082.5498">get_db()</text><rect fill="#282828" height="30.2969" rx="2.5" ry="2.5" style="stroke:#33FF33;stroke-width:1;" width="71.4219" x="573.3892" y="21.2969"/><text fill="#33FF33" font-family="Verdana" font-size="14" lengthAdjust="spacing" textLength="57.4219" x="580.3892" y="41.292">Settings</text><rect fill="#282828" height="30.2969" rx="2.5" ry="2.5" style="stroke:#33FF33;stroke-width:1;" width="71.4219" x="573.3892" y="1046.2578"/><text fill="#33FF33" font-family="Verdana" font-size="14" lengthAdjust="spacing" textLength="57.4219" x="580.3892" y="1066.2529">Settings</text><rect fill="#282828" height="46.5938" rx="2.5" ry="2.5" style="stroke:#33FF33;stroke-width:1;" width="109.8535" x="674.811" y="5"/><text fill="#33FF33" font-family="Verdana" font-size="14" lengthAdjust="spacing" textLength="80.6572" x="689.4092" y="24.9951">MCP Server</text><text fill="#33FF33" font-family="Verdana" font-size="14" lengthAdjust="spacing" textLength="95.8535" x="681.811" y="41.292">(External API)</text><rect fill="#282828" height="46.5938" rx="2.5" ry="2.5" style="stroke:#33FF33;stroke-width:1;" width="109.8535" x="674.811" y="1046.2578"/><text fill="#33FF33" font-family="Verdana" font-size="14" lengthAdjust="spacing" textLength="80.6572" x="689.4092" y="1066.2529">MCP Server</text><text fill="#33FF33" font-family="Verdana" font-size="14" lengthAdjust="spacing" textLength="95.8535" x="681.811" y="1082.5498">(External API)</text><rect fill="#282828" height="30.2969" rx="2.5" ry="2.5" style="stroke:#33FF33;stroke-width:1;" width="45.2129" x="814.6646" y="21.2969"/><text fill="#33FF33" font-family="Verdana" font-size="14" lengthAdjust="spacing" textLength="31.2129" x="821.6646" y="41.292">crud</text><rect fill="#282828" height="30.2969" rx="2.5" ry="2.5" style="stroke:#33FF33;stroke-width:1;" width="45.2129" x="814.6646" y="1046.2578"/><text fill="#33FF33" font-family="Verdana" font-size="14" lengthAdjust="spacing" textLength="31.2129" x="821.6646" y="1066.2529">crud</text><rect fill="#282828" height="30.2969" rx="2.5" ry="2.5" style="stroke:#33FF33;stroke-width:1;" width="80.8008" x="1051.8833" y="21.2969"/><text fill="#33FF33" font-family="Verdana" font-size="14" lengthAdjust="spacing" textLength="66.8008" x="1058.8833" y="41.292">Database</text><rect fill="#282828" height="30.2969" rx="2.5" ry="2.5" style="stroke:#33FF33;stroke-width:1;" width="80.8008" x="1051.8833" y="1046.2578"/><text fill="#33FF33" font-family="Verdana" font-size="14" lengthAdjust="spacing" textLength="66.8008" x="1058.8833" y="1066.2529">Database</text><g><title>tasks</title><rect fill="#282828" height="953.5313" style="stroke:#33FF33;stroke-width:1;" width="10" x="330.8188" y="83.7266"/></g><g><title>dependencies</title><rect fill="#282828" height="58.2656" style="stroke:#33FF33;stroke-width:1;" width="10" x="478.5234" y="239.1953"/></g><g><title>Settings</title><rect fill="#282828" height="29.1328" style="stroke:#33FF33;stroke-width:1;" width="10" x="604.1001" y="112.8594"/></g><g><title>MCP Server</title><rect fill="#282828" height="29.1328" style="stroke:#33FF33;stroke-width:1;" width="10" x="724.7378" y="408.9922"/></g><g><title>MCP Server</title><rect fill="#282828" height="29.1328" style="stroke:#33FF33;stroke-width:1;" width="10" x="724.7378" y="639.8594"/></g><g><title>crud</title><rect fill="#282828" height="58.2656" style="stroke:#33FF33;stroke-width:1;" width="10" x="832.271" y="722.2578"/></g><g><title>crud</title><rect fill="#282828" height="58.2656" style="stroke:#33FF33;stroke-width:1;" width="10" x="832.271" y="833.7891"/></g><g><title>crud</title><rect fill="#282828" height="58.2656" style="stroke:#33FF33;stroke-width:1;" width="10" x="832.271" y="935.9922"/></g><g><title>Database</title><rect fill="#282828" height="761.9297" style="stroke:#33FF33;stroke-width:1;" width="10" x="1087.2837" y="268.3281"/></g><polygon fill="#33FF33" points="318.8188,79.7266,328.8188,83.7266,318.8188,87.7266,322.8188,83.7266" style="stroke:#33FF33;stroke-width:1;"/><line style="stroke:#33FF33;stroke-width:1;" x1="77.0444" x2="324.8188" y1="83.7266" y2="83.7266"/><text fill="#33FF33" font-family="Verdana" font-size="13" lengthAdjust="spacing" textLength="234.7744" x="84.0444" y="78.6606">Every mcp_update_interval seconds</text><polygon fill="#33FF33" points="592.1001,108.8594,602.1001,112.8594,592.1001,116.8594,596.1001,112.8594" style="stroke:#33FF33;stroke-width:1;"/><line style="stroke:#33FF33;stroke-width:1;" x1="340.8188" x2="598.1001" y1="112.8594" y2="112.8594"/><text fill="#33FF33" font-family="Verdana" font-size="13" lengthAdjust="spacing" textLength="121.7798" x="347.8188" y="107.7935">Load configuration</text><polygon fill="#33FF33" points="351.8188,137.9922,341.8188,141.9922,351.8188,145.9922,347.8188,141.9922" style="stroke:#33FF33;stroke-width:1;"/><line style="stroke:#33FF33;stroke-width:1;stroke-dasharray:2.0,2.0;" x1="345.8188" x2="608.1001" y1="141.9922" y2="141.9922"/><text fill="#33FF33" font-family="Verdana" font-size="13" lengthAdjust="spacing" textLength="239.2813" x="357.8188" y="136.9263">mcp_enabled, mcp_url, mcp_api_key</text><path d="M15,156.9922 L79.4429,156.9922 L79.4429,164.125 L69.4429,174.125 L15,174.125 L15,156.9922 " fill="#33FF33" style="stroke:#33FF33;stroke-width:1;"/><rect fill="transparent" height="873.2656" style="stroke:#33FF33;stroke-width:1;" width="1177.6841" x="15" y="156.9922"/><text fill="#282828" font-family="Verdana" font-size="13" font-weight="bold" lengthAdjust="spacing" textLength="19.4429" x="30" y="170.0591">alt</text><text fill="#33FF33" font-family="Verdana" font-size="11" font-weight="bold" lengthAdjust="spacing" textLength="227.1812" x="94.4429" y="169.2026">[MCP not enabled or not configured]</text><polygon fill="#33FF33" points="88.0444,191.2578,78.0444,195.2578,88.0444,199.2578,84.0444,195.2578" style="stroke:#33FF33;stroke-width:1;"/><line style="stroke:#33FF33;stroke-width:1;stroke-dasharray:2.0,2.0;" x1="82.0444" x2="329.8188" y1="195.2578" y2="195.2578"/><text fill="#33FF33" font-family="Verdana" font-size="13" lengthAdjust="spacing" textLength="135.021" x="94.0444" y="190.1919">Skip (print message)</text><line style="stroke:#33FF33;stroke-width:1;stroke-dasharray:2.0,2.0;" x1="15" x2="1192.6841" y1="204.2578" y2="204.2578"/><text fill="#33FF33" font-family="Verdana" font-size="11" font-weight="bold" lengthAdjust="spacing" textLength="90.6587" x="20" y="214.4683">[MCP enabled]</text><polygon fill="#33FF33" points="466.5234,235.1953,476.5234,239.1953,466.5234,243.1953,470.5234,239.1953" style="stroke:#33FF33;stroke-width:1;"/><line style="stroke:#33FF33;stroke-width:1;" x1="340.8188" x2="472.5234" y1="239.1953" y2="239.1953"/><text fill="#33FF33" font-family="Verdana" font-size="13" lengthAdjust="spacing" textLength="101.6323" x="347.8188" y="234.1294">anext(get_db())</text><polygon fill="#33FF33" points="1075.2837,264.3281,1085.2837,268.3281,1075.2837,272.3281,1079.2837,268.3281" style="stroke:#33FF33;stroke-width:1;"/><line style="stroke:#33FF33;stroke-width:1;" x1="488.5234" x2="1081.2837" y1="268.3281" y2="268.3281"/><text fill="#33FF33" font-family="Verdana" font-size="13" lengthAdjust="spacing" textLength="93.666" x="495.5234" y="263.2622">SessionLocal()</text><polygon fill="#33FF33" points="351.8188,293.4609,341.8188,297.4609,351.8188,301.4609,347.8188,297.4609" style="stroke:#33FF33;stroke-width:1;"/><line style="stroke:#33FF33;stroke-width:1;stroke-dasharray:2.0,2.0;" x1="345.8188" x2="482.5234" y1="297.4609" y2="297.4609"/><text fill="#33FF33" font-family="Verdana" font-size="13" lengthAdjust="spacing" textLength="68.7578" x="357.8188" y="292.395">db session</text><polygon fill="#33FF33" points="1075.2837,322.5938,1085.2837,326.5938,1075.2837,330.5938,1079.2837,326.5938" style="stroke:#33FF33;stroke-width:1;"/><line style="stroke:#33FF33;stroke-width:1;" x1="340.8188" x2="1081.2837" y1="326.5938" y2="326.5938"/><text fill="#33FF33" font-family="Verdana" font-size="13" lengthAdjust="spacing" textLength="124.541" x="347.8188" y="321.5278">SELECT Operations</text><polygon fill="#33FF33" points="351.8188,351.7266,341.8188,355.7266,351.8188,359.7266,347.8188,355.7266" style="stroke:#33FF33;stroke-width:1;"/><line style="stroke:#33FF33;stroke-width:1;stroke-dasharray:2.0,2.0;" x1="345.8188" x2="1086.2837" y1="355.7266" y2="355.7266"/><text fill="#33FF33" font-family="Verdana" font-size="13" lengthAdjust="spacing" textLength="114.9878" x="357.8188" y="350.6606">List of Operations</text><path d="M223.9844,370.7266 L288.4272,370.7266 L288.4272,377.8594 L278.4272,387.8594 L223.9844,387.8594 L223.9844,370.7266 " fill="#33FF33" style="stroke:#33FF33;stroke-width:1;"/><rect fill="transparent" height="652.5313" style="stroke:#33FF33;stroke-width:1;" width="958.6997" x="223.9844" y="370.7266"/><text fill="#282828" font-family="Verdana" font-size="13" font-weight="bold" lengthAdjust="spacing" textLength="19.4429" x="238.9844" y="383.7935">alt</text><text fill="#33FF33" font-family="Verdana" font-size="11" font-weight="bold" lengthAdjust="spacing" textLength="238.4819" x="303.4272" y="382.937">[No operations in database (first run)]</text><polygon fill="#33FF33" points="712.7378,404.9922,722.7378,408.9922,712.7378,412.9922,716.7378,408.9922" style="stroke:#33FF33;stroke-width:1;"/><line style="stroke:#33FF33;stroke-width:1;" x1="340.8188" x2="718.7378" y1="408.9922" y2="408.9922"/><text fill="#33FF33" font-family="Verdana" font-size="13" lengthAdjust="spacing" textLength="128.1401" x="347.8188" y="403.9263">GET /api/operations</text><polygon fill="#33FF33" points="351.8188,434.125,341.8188,438.125,351.8188,442.125,347.8188,438.125" style="stroke:#33FF33;stroke-width:1;"/><line style="stroke:#33FF33;stroke-width:1;stroke-dasharray:2.0,2.0;" x1="345.8188" x2="728.7378" y1="438.125" y2="438.125"/><text fill="#33FF33" font-family="Verdana" font-size="13" lengthAdjust="spacing" textLength="159.0278" x="357.8188" y="433.0591">List of operations (JSON)</text><path d="M253.9844,453.125 L330.6084,453.125 L330.6084,460.2578 L320.6084,470.2578 L253.9844,470.2578 L253.9844,453.125 " fill="#33FF33" style="stroke:#33FF33;stroke-width:1;"/><rect fill="transparent" height="46.2656" style="stroke:#33FF33;stroke-width:1;" width="898.6997" x="253.9844" y="453.125"/><text fill="#282828" font-family="Verdana" font-size="13" font-weight="bold" lengthAdjust="spacing" textLength="31.624" x="268.9844" y="466.1919">loop</text><text fill="#33FF33" font-family="Verdana" font-size="11" font-weight="bold" lengthAdjust="spacing" textLength="127.6011" x="345.6084" y="465.3354">[For each operation]</text><polygon fill="#33FF33" points="1075.2837,487.3906,1085.2837,491.3906,1075.2837,495.3906,1079.2837,491.3906" style="stroke:#33FF33;stroke-width:1;"/><line style="stroke:#33FF33;stroke-width:1;" x1="340.8188" x2="1081.2837" y1="491.3906" y2="491.3906"/><text fill="#33FF33" font-family="Verdana" font-size="13" lengthAdjust="spacing" textLength="115.8257" x="347.8188" y="486.3247">INSERT Operation</text><line style="stroke:#33FF33;stroke-width:1;stroke-dasharray:2.0,2.0;" x1="223.9844" x2="1182.6841" y1="507.3906" y2="507.3906"/><text fill="#33FF33" font-family="Verdana" font-size="11" font-weight="bold" lengthAdjust="spacing" textLength="112.5137" x="228.9844" y="517.6011">[Operations exist]</text><polygon fill="#33FF33" points="1075.2837,538.3281,1085.2837,542.3281,1075.2837,546.3281,1079.2837,542.3281" style="stroke:#33FF33;stroke-width:1;"/><line style="stroke:#33FF33;stroke-width:1;" x1="340.8188" x2="1081.2837" y1="542.3281" y2="542.3281"/><text fill="#33FF33" font-family="Verdana" font-size="13" lengthAdjust="spacing" textLength="234.6919" x="347.8188" y="537.2622">SELECT active &amp; selected Operation</text><polygon fill="#33FF33" points="351.8188,567.4609,341.8188,571.4609,351.8188,575.4609,347.8188,571.4609" style="stroke:#33FF33;stroke-width:1;"/><line style="stroke:#33FF33;stroke-width:1;stroke-dasharray:2.0,2.0;" x1="345.8188" x2="1086.2837" y1="571.4609" y2="571.4609"/><text fill="#33FF33" font-family="Verdana" font-size="13" lengthAdjust="spacing" textLength="120.1738" x="357.8188" y="566.395">Operation or None</text><path d="M233.9844,586.4609 L298.4272,586.4609 L298.4272,593.5938 L288.4272,603.5938 L233.9844,603.5938 L233.9844,586.4609 " fill="#33FF33" style="stroke:#33FF33;stroke-width:1;"/><rect fill="transparent" height="429.7969" style="stroke:#33FF33;stroke-width:1;" width="938.6997" x="233.9844" y="586.4609"/><text fill="#282828" font-family="Verdana" font-size="13" font-weight="bold" lengthAdjust="spacing" textLength="19.4429" x="248.9844" y="599.5278">alt</text><text fill="#33FF33" font-family="Verdana" font-size="11" font-weight="bold" lengthAdjust="spacing" textLength="128.1865" x="313.4272" y="598.6714">[Operation selected]</text><polygon fill="#33FF33" points="712.7378,635.8594,722.7378,639.8594,712.7378,643.8594,716.7378,639.8594" style="stroke:#33FF33;stroke-width:1;"/><line style="stroke:#33FF33;stroke-width:1;" x1="340.8188" x2="718.7378" y1="639.8594" y2="639.8594"/><text fill="#33FF33" font-family="Verdana" font-size="13" lengthAdjust="spacing" textLength="176.0332" x="347.8188" y="619.6606">GET /api/tableau/resources</text><text fill="#33FF33" font-family="Verdana" font-size="13" lengthAdjust="spacing" textLength="131.9805" x="347.8188" y="634.7935">params: operationId</text><polygon fill="#33FF33" points="351.8188,664.9922,341.8188,668.9922,351.8188,672.9922,347.8188,668.9922" style="stroke:#33FF33;stroke-width:1;"/><line style="stroke:#33FF33;stroke-width:1;stroke-dasharray:2.0,2.0;" x1="345.8188" x2="728.7378" y1="668.9922" y2="668.9922"/><text fill="#33FF33" font-family="Verdana" font-size="13" lengthAdjust="spacing" textLength="134.6021" x="357.8188" y="663.9263">List[MCPTablueItem]</text><path d="M243.9844,683.9922 L320.6084,683.9922 L320.6084,691.125 L310.6084,701.125 L243.9844,701.125 L243.9844,683.9922 " fill="#33FF33" style="stroke:#33FF33;stroke-width:1;"/><rect fill="transparent" height="325.2656" style="stroke:#33FF33;stroke-width:1;" width="918.6997" x="243.9844" y="683.9922"/><text fill="#282828" font-family="Verdana" font-size="13" font-weight="bold" lengthAdjust="spacing" textLength="31.624" x="258.9844" y="697.0591">loop</text><text fill="#33FF33" font-family="Verdana" font-size="11" font-weight="bold" lengthAdjust="spacing" textLength="153.4521" x="335.6084" y="696.2026">[For each resource item]</text><polygon fill="#33FF33" points="820.271,718.2578,830.271,722.2578,820.271,726.2578,824.271,722.2578" style="stroke:#33FF33;stroke-width:1;"/><line style="stroke:#33FF33;stroke-width:1;" x1="340.8188" x2="826.271" y1="722.2578" y2="722.2578"/><text fill="#33FF33" font-family="Verdana" font-size="13" lengthAdjust="spacing" textLength="188.7095" x="347.8188" y="717.1919">get_resource_by_uid(db, uid)</text><polygon fill="#33FF33" points="1075.2837,747.3906,1085.2837,751.3906,1075.2837,755.3906,1079.2837,751.3906" style="stroke:#33FF33;stroke-width:1;"/><line style="stroke:#33FF33;stroke-width:1;" x1="842.271" x2="1081.2837" y1="751.3906" y2="751.3906"/><text fill="#33FF33" font-family="Verdana" font-size="13" lengthAdjust="spacing" textLength="221.0127" x="849.271" y="746.3247">SELECT Resource WHERE uid=uid</text><polygon fill="#33FF33" points="848.271,776.5234,838.271,780.5234,848.271,784.5234,844.271,780.5234" style="stroke:#33FF33;stroke-width:1;"/><line style="stroke:#33FF33;stroke-width:1;stroke-dasharray:2.0,2.0;" x1="842.271" x2="1086.2837" y1="780.5234" y2="780.5234"/><text fill="#33FF33" font-family="Verdana" font-size="13" lengthAdjust="spacing" textLength="115.9653" x="854.271" y="775.4575">Resource or None</text><path d="M253.9844,795.5234 L318.4272,795.5234 L318.4272,802.6563 L308.4272,812.6563 L253.9844,812.6563 L253.9844,795.5234 " fill="#33FF33" style="stroke:#33FF33;stroke-width:1;"/><rect fill="transparent" height="206.7344" style="stroke:#33FF33;stroke-width:1;" width="898.6997" x="253.9844" y="795.5234"/><text fill="#282828" font-family="Verdana" font-size="13" font-weight="bold" lengthAdjust="spacing" textLength="19.4429" x="268.9844" y="808.5903">alt</text><text fill="#33FF33" font-family="Verdana" font-size="11" font-weight="bold" lengthAdjust="spacing" textLength="132.3115" x="333.4272" y="807.7339">[Resource not exists]</text><polygon fill="#33FF33" points="820.271,829.7891,830.271,833.7891,820.271,837.7891,824.271,833.7891" style="stroke:#33FF33;stroke-width:1;"/><line style="stroke:#33FF33;stroke-width:1;" x1="340.8188" x2="826.271" y1="833.7891" y2="833.7891"/><text fill="#33FF33" font-family="Verdana" font-size="13" lengthAdjust="spacing" textLength="169.1333" x="347.8188" y="828.7231">create_resource(db, item)</text><polygon fill="#33FF33" points="1075.2837,858.9219,1085.2837,862.9219,1075.2837,866.9219,1079.2837,862.9219" style="stroke:#33FF33;stroke-width:1;"/><line style="stroke:#33FF33;stroke-width:1;" x1="842.271" x2="1081.2837" y1="862.9219" y2="862.9219"/><text fill="#33FF33" font-family="Verdana" font-size="13" lengthAdjust="spacing" textLength="111.6172" x="849.271" y="857.856">INSERT Resource</text><polygon fill="#33FF33" points="848.271,888.0547,838.271,892.0547,848.271,896.0547,844.271,892.0547" style="stroke:#33FF33;stroke-width:1;"/><line style="stroke:#33FF33;stroke-width:1;stroke-dasharray:2.0,2.0;" x1="842.271" x2="1086.2837" y1="892.0547" y2="892.0547"/><text fill="#33FF33" font-family="Verdana" font-size="13" lengthAdjust="spacing" textLength="92.9741" x="854.271" y="886.9888">New Resource</text><line style="stroke:#33FF33;stroke-width:1;stroke-dasharray:2.0,2.0;" x1="253.9844" x2="1152.6841" y1="901.0547" y2="901.0547"/><text fill="#33FF33" font-family="Verdana" font-size="11" font-weight="bold" lengthAdjust="spacing" textLength="107.8354" x="258.9844" y="911.2651">[Resource exists]</text><polygon fill="#33FF33" points="820.271,931.9922,830.271,935.9922,820.271,939.9922,824.271,935.9922" style="stroke:#33FF33;stroke-width:1;"/><line style="stroke:#33FF33;stroke-width:1;" x1="340.8188" x2="826.271" y1="935.9922" y2="935.9922"/><text fill="#33FF33" font-family="Verdana" font-size="13" lengthAdjust="spacing" textLength="173.3862" x="347.8188" y="930.9263">update_resource(db, item)</text><polygon fill="#33FF33" points="1075.2837,961.125,1085.2837,965.125,1075.2837,969.125,1079.2837,965.125" style="stroke:#33FF33;stroke-width:1;"/><line style="stroke:#33FF33;stroke-width:1;" x1="842.271" x2="1081.2837" y1="965.125" y2="965.125"/><text fill="#33FF33" font-family="Verdana" font-size="13" lengthAdjust="spacing" textLength="117.0317" x="849.271" y="960.0591">UPDATE Resource</text><polygon fill="#33FF33" points="848.271,990.2578,838.271,994.2578,848.271,998.2578,844.271,994.2578" style="stroke:#33FF33;stroke-width:1;"/><line style="stroke:#33FF33;stroke-width:1;stroke-dasharray:2.0,2.0;" x1="842.271" x2="1086.2837" y1="994.2578" y2="994.2578"/><text fill="#33FF33" font-family="Verdana" font-size="13" lengthAdjust="spacing" textLength="119.9517" x="854.271" y="989.1919">Updated Resource</text><!--SRC=[jLNVJzim47xFNt7ZOKibAbvugWGIqC0wTGMHeZsCgNBZerXDdSns6FptEpi_6YTX34shLCM9lxlxxlikpWVpY3k4H9dnHY7A8FW49t_v8sYCFmkK2SBn1BvUtC1C6jmePaGcOGpdBDbkL5P83akcj-z9dJDbH29o9WqSN39jpcvczp9E7f4NAQe3O1gQEnzjg9I-bniqgrsIhpWpB1ov04j2-s2EEKfEBGYiOlYwGb-XcPuV-_0OZH5oeylwrOqFiJB4g9vGtSimUZQe94k1w9TPQTl79whWRkVYzcxQAJSbxckcqUrRCa7JCunFotuc456j5x2z5ZbrYoj1BgWdggenoIJN0KkCUAATIe70NMo6keK9p3F6WT0FObEK1kwZcaRh1OptrMrTb6oT8ZyiIQYqNB1ShBRu4d3iPmfOQjp4oCn05GwPShSr2-G1qAyYQzdMpKyWteeSmbnHgx13hTa6Hm6c6btIAc4x_BJoSm9CuhC9Qwj73jGGh4otpygbZNHXCLKXLUPPmjAm4zKDsQl3rsI22tI0bXIjIZxFibeqZowMS9rZQOPsc4xokT06ieSkgkH6-Yuoo9ej419uDKyGFWX5iQgGPISU0L9m0bVH4ex8mQFCJ-xrROUvVcXr7-3M8X1-YQyN-tejBTfvcaMQPJbSqamGxd6VfzdlYpPRnD5jIxG6Ig-udzzDobusm6UY6mndhQnmP14-afyf9eR6jL-duqy3i9Ezo2JscxGsxM5rwk4UVL-C7N5M72dKMQ4IUtpHsS5sLBVHQkPd6jJx5U- -qxCbbIXmPd3tmuE_ufpNMD_1cYW8IkZXl2xTCJW1-txM4QlroweGFEJhGw3hg1VSq2dFqEwsUzhryxQcy-rpT1lPl2VqxyNMbbQqcgYkemFQ39FfawSHQDAwuz0Ee-xXXbHA5De3lnRAAMJb7Gr6ly6iBrNrGjNi1YCw0Ytmrv_nRmhatir6a7U8KNtz_fSOTpVJisNqBZ7k72F-hu98VopRz_MwldQ_ClOJO_VQ7s6dssy0]--></g></svg>