<svg xmlns="http://www.w3.org/2000/svg" xmlns:xlink="http://www.w3.org/1999/xlink" contentStyleType="text/css" data-diagram-type="SEQUENCE" height="710px" preserveAspectRatio="none" style="width:951px;height:710px;background:#282828;" version="1.1" viewBox="0 0 951 710" width="951px" zoomAndPan="magnify"><defs/><g><rect fill="#282828" height="710" style="stroke:transparent;stroke-width:1;" width="951" x="0" y="0"/><g><title>gateway_router</title><rect fill="#282828" height="498.0625" style="stroke:#33FF33;stroke-width:1;" width="10" x="286.4258" y="113.9922"/></g><g><title>dependencies</title><rect fill="#282828" height="58.2656" style="stroke:#33FF33;stroke-width:1;" width="10" x="442.7573" y="143.125"/></g><g><title>crud</title><rect fill="#282828" height="58.2656" style="stroke:#33FF33;stroke-width:1;" width="10" x="551.2339" y="230.5234"/></g><g><title>crud</title><rect fill="#282828" height="87.3984" style="stroke:#33FF33;stroke-width:1;" width="10" x="551.2339" y="342.0547"/></g><g><title>crud</title><rect fill="#282828" height="102.5313" style="stroke:#33FF33;stroke-width:1;" width="10" x="551.2339" y="473.3906"/></g><g><title>Database</title><rect fill="#282828" height="468.9297" style="stroke:#33FF33;stroke-width:1;" width="10" x="863.0962" y="172.2578"/></g><rect fill="#282828" height="280.1328" style="stroke:#33FF33;stroke-width:1;" width="743.7334" x="200.9644" y="303.7891"/><rect fill="#282828" height="146.4688" style="stroke:transparent;stroke-width:1;" width="743.7334" x="200.9644" y="437.4531"/><g><title>Chirpstack</title><rect fill="transparent" height="606.5938" width="8" x="60.1738" y="52.5938"/><line style="stroke:#33FF33;stroke-width:1;" x1="64" x2="64" y1="52.5938" y2="659.1875"/></g><g><title>gateway_router</title><rect fill="transparent" height="606.5938" width="8" x="287.4258" y="52.5938"/><line style="stroke:#33FF33;stroke-width:1;" x1="290.9644" x2="290.9644" y1="52.5938" y2="659.1875"/></g><g><title>dependencies</title><rect fill="transparent" height="606.5938" width="8" x="443.7573" y="52.5938"/><line style="stroke:#33FF33;stroke-width:1;" x1="446.8872" x2="446.8872" y1="52.5938" y2="659.1875"/></g><g><title>crud</title><rect fill="transparent" height="606.5938" width="8" x="552.2339" y="52.5938"/><line style="stroke:#33FF33;stroke-width:1;" x1="555.6274" x2="555.6274" y1="52.5938" y2="659.1875"/></g><g><title>Database</title><rect fill="transparent" height="606.5938" width="8" x="864.0962" y="52.5938"/><line style="stroke:#33FF33;stroke-width:1;" x1="867.4946" x2="867.4946" y1="52.5938" y2="659.1875"/></g><rect fill="#282828" height="46.5938" rx="2.5" ry="2.5" style="stroke:#33FF33;stroke-width:1;" width="88.3477" x="20" y="5"/><text fill="#33FF33" font-family="Verdana" font-size="14" lengthAdjust="spacing" textLength="74.3477" x="27" y="24.9951">Chirpstack</text><text fill="#33FF33" font-family="Verdana" font-size="14" lengthAdjust="spacing" textLength="61.8447" x="33.2515" y="41.292">Gateway</text><rect fill="#282828" height="46.5938" rx="2.5" ry="2.5" style="stroke:#33FF33;stroke-width:1;" width="88.3477" x="20" y="658.1875"/><text fill="#33FF33" font-family="Verdana" font-size="14" lengthAdjust="spacing" textLength="74.3477" x="27" y="678.1826">Chirpstack</text><text fill="#33FF33" font-family="Verdana" font-size="14" lengthAdjust="spacing" textLength="61.8447" x="33.2515" y="694.4795">Gateway</text><rect fill="#282828" height="46.5938" rx="2.5" ry="2.5" style="stroke:#33FF33;stroke-width:1;" width="140.9229" x="220.9644" y="5"/><text fill="#33FF33" font-family="Verdana" font-size="14" lengthAdjust="spacing" textLength="109.9355" x="236.458" y="24.9951">gateway_router</text><text fill="#33FF33" font-family="Verdana" font-size="14" lengthAdjust="spacing" textLength="126.9229" x="227.9644" y="41.292">/api/gateway/data</text><rect fill="#282828" height="46.5938" rx="2.5" ry="2.5" style="stroke:#33FF33;stroke-width:1;" width="140.9229" x="220.9644" y="658.1875"/><text fill="#33FF33" font-family="Verdana" font-size="14" lengthAdjust="spacing" textLength="109.9355" x="236.458" y="678.1826">gateway_router</text><text fill="#33FF33" font-family="Verdana" font-size="14" lengthAdjust="spacing" textLength="126.9229" x="227.9644" y="694.4795">/api/gateway/data</text><rect fill="#282828" height="46.5938" rx="2.5" ry="2.5" style="stroke:#33FF33;stroke-width:1;" width="111.7402" x="391.8872" y="5"/><text fill="#33FF33" font-family="Verdana" font-size="14" lengthAdjust="spacing" textLength="97.7402" x="398.8872" y="24.9951">dependencies</text><text fill="#33FF33" font-family="Verdana" font-size="14" lengthAdjust="spacing" textLength="58.6865" x="418.4141" y="41.292">get_db()</text><rect fill="#282828" height="46.5938" rx="2.5" ry="2.5" style="stroke:#33FF33;stroke-width:1;" width="111.7402" x="391.8872" y="658.1875"/><text fill="#33FF33" font-family="Verdana" font-size="14" lengthAdjust="spacing" textLength="97.7402" x="398.8872" y="678.1826">dependencies</text><text fill="#33FF33" font-family="Verdana" font-size="14" lengthAdjust="spacing" textLength="58.6865" x="418.4141" y="694.4795">get_db()</text><rect fill="#282828" height="30.2969" rx="2.5" ry="2.5" style="stroke:#33FF33;stroke-width:1;" width="45.2129" x="533.6274" y="21.2969"/><text fill="#33FF33" font-family="Verdana" font-size="14" lengthAdjust="spacing" textLength="31.2129" x="540.6274" y="41.292">crud</text><rect fill="#282828" height="30.2969" rx="2.5" ry="2.5" style="stroke:#33FF33;stroke-width:1;" width="45.2129" x="533.6274" y="658.1875"/><text fill="#33FF33" font-family="Verdana" font-size="14" lengthAdjust="spacing" textLength="31.2129" x="540.6274" y="678.1826">crud</text><rect fill="#282828" height="46.5938" rx="2.5" ry="2.5" style="stroke:#33FF33;stroke-width:1;" width="113.2031" x="811.4946" y="5"/><text fill="#33FF33" font-family="Verdana" font-size="14" lengthAdjust="spacing" textLength="66.8008" x="834.6958" y="24.9951">Database</text><text fill="#33FF33" font-family="Verdana" font-size="14" lengthAdjust="spacing" textLength="99.2031" x="818.4946" y="41.292">(SQLAlchemy)</text><rect fill="#282828" height="46.5938" rx="2.5" ry="2.5" style="stroke:#33FF33;stroke-width:1;" width="113.2031" x="811.4946" y="658.1875"/><text fill="#33FF33" font-family="Verdana" font-size="14" lengthAdjust="spacing" textLength="66.8008" x="834.6958" y="678.1826">Database</text><text fill="#33FF33" font-family="Verdana" font-size="14" lengthAdjust="spacing" textLength="99.2031" x="818.4946" y="694.4795">(SQLAlchemy)</text><g><title>gateway_router</title><rect fill="#282828" height="498.0625" style="stroke:#33FF33;stroke-width:1;" width="10" x="286.4258" y="113.9922"/></g><g><title>dependencies</title><rect fill="#282828" height="58.2656" style="stroke:#33FF33;stroke-width:1;" width="10" x="442.7573" y="143.125"/></g><g><title>crud</title><rect fill="#282828" height="58.2656" style="stroke:#33FF33;stroke-width:1;" width="10" x="551.2339" y="230.5234"/></g><g><title>crud</title><rect fill="#282828" height="87.3984" style="stroke:#33FF33;stroke-width:1;" width="10" x="551.2339" y="342.0547"/></g><g><title>crud</title><rect fill="#282828" height="102.5313" style="stroke:#33FF33;stroke-width:1;" width="10" x="551.2339" y="473.3906"/></g><g><title>Database</title><rect fill="#282828" height="468.9297" style="stroke:#33FF33;stroke-width:1;" width="10" x="863.0962" y="172.2578"/></g><polygon fill="#33FF33" points="274.4258,109.9922,284.4258,113.9922,274.4258,117.9922,278.4258,113.9922" style="stroke:#33FF33;stroke-width:1;"/><line style="stroke:#33FF33;stroke-width:1;" x1="64.1738" x2="280.4258" y1="113.9922" y2="113.9922"/><text fill="#33FF33" font-family="Verdana" font-size="13" lengthAdjust="spacing" textLength="156.2539" x="71.1738" y="78.6606">POST /api/gateway/data</text><text fill="#33FF33" font-family="Verdana" font-size="13" lengthAdjust="spacing" textLength="76.3687" x="71.1738" y="93.7935">event="up"</text><text fill="#33FF33" font-family="Verdana" font-size="13" lengthAdjust="spacing" textLength="203.252" x="71.1738" y="108.9263">data=ChirpstackUpEventModel</text><polygon fill="#33FF33" points="430.7573,139.125,440.7573,143.125,430.7573,147.125,434.7573,143.125" style="stroke:#33FF33;stroke-width:1;"/><line style="stroke:#33FF33;stroke-width:1;" x1="296.4258" x2="436.7573" y1="143.125" y2="143.125"/><text fill="#33FF33" font-family="Verdana" font-size="13" lengthAdjust="spacing" textLength="126.2803" x="303.4258" y="138.0591">Request db session</text><polygon fill="#33FF33" points="851.0962,168.2578,861.0962,172.2578,851.0962,176.2578,855.0962,172.2578" style="stroke:#33FF33;stroke-width:1;"/><line style="stroke:#33FF33;stroke-width:1;" x1="452.7573" x2="857.0962" y1="172.2578" y2="172.2578"/><text fill="#33FF33" font-family="Verdana" font-size="13" lengthAdjust="spacing" textLength="93.666" x="459.7573" y="167.1919">SessionLocal()</text><polygon fill="#33FF33" points="307.4258,197.3906,297.4258,201.3906,307.4258,205.3906,303.4258,201.3906" style="stroke:#33FF33;stroke-width:1;"/><line style="stroke:#33FF33;stroke-width:1;stroke-dasharray:2.0,2.0;" x1="301.4258" x2="446.7573" y1="201.3906" y2="201.3906"/><text fill="#33FF33" font-family="Verdana" font-size="13" lengthAdjust="spacing" textLength="104.0571" x="313.4258" y="196.3247">yield db session</text><polygon fill="#33FF33" points="539.2339,226.5234,549.2339,230.5234,539.2339,234.5234,543.2339,230.5234" style="stroke:#33FF33;stroke-width:1;"/><line style="stroke:#33FF33;stroke-width:1;" x1="296.4258" x2="545.2339" y1="230.5234" y2="230.5234"/><text fill="#33FF33" font-family="Verdana" font-size="13" lengthAdjust="spacing" textLength="201.9888" x="303.4258" y="225.4575">get_tracker_by_eui(db, devEui)</text><polygon fill="#33FF33" points="851.0962,255.6563,861.0962,259.6563,851.0962,263.6563,855.0962,259.6563" style="stroke:#33FF33;stroke-width:1;"/><line style="stroke:#33FF33;stroke-width:1;" x1="561.2339" x2="857.0962" y1="259.6563" y2="259.6563"/><text fill="#33FF33" font-family="Verdana" font-size="13" lengthAdjust="spacing" textLength="277.8623" x="568.2339" y="254.5903">SELECT Tracker WHERE deviceEUI=devEui</text><polygon fill="#33FF33" points="567.2339,284.7891,557.2339,288.7891,567.2339,292.7891,563.2339,288.7891" style="stroke:#33FF33;stroke-width:1;"/><line style="stroke:#33FF33;stroke-width:1;stroke-dasharray:2.0,2.0;" x1="561.2339" x2="862.0962" y1="288.7891" y2="288.7891"/><text fill="#33FF33" font-family="Verdana" font-size="13" lengthAdjust="spacing" textLength="104.749" x="573.2339" y="283.7231">Tracker or None</text><path d="M200.9644,303.7891 L265.4072,303.7891 L265.4072,310.9219 L255.4072,320.9219 L200.9644,320.9219 L200.9644,303.7891 " fill="#33FF33" style="stroke:#33FF33;stroke-width:1;"/><rect fill="transparent" height="280.1328" style="stroke:#33FF33;stroke-width:1;" width="743.7334" x="200.9644" y="303.7891"/><text fill="#282828" font-family="Verdana" font-size="13" font-weight="bold" lengthAdjust="spacing" textLength="19.4429" x="215.9644" y="316.856">alt</text><text fill="#33FF33" font-family="Verdana" font-size="11" font-weight="bold" lengthAdjust="spacing" textLength="121.3115" x="280.4072" y="315.9995">[Tracker not found]</text><polygon fill="#33FF33" points="539.2339,338.0547,549.2339,342.0547,539.2339,346.0547,543.2339,342.0547" style="stroke:#33FF33;stroke-width:1;"/><line style="stroke:#33FF33;stroke-width:1;" x1="296.4258" x2="545.2339" y1="342.0547" y2="342.0547"/><text fill="#33FF33" font-family="Verdana" font-size="13" lengthAdjust="spacing" textLength="158.6724" x="303.4258" y="336.9888">create_tracker(db, data)</text><polygon fill="#33FF33" points="851.0962,367.1875,861.0962,371.1875,851.0962,375.1875,855.0962,371.1875" style="stroke:#33FF33;stroke-width:1;"/><line style="stroke:#33FF33;stroke-width:1;" x1="561.2339" x2="857.0962" y1="371.1875" y2="371.1875"/><text fill="#33FF33" font-family="Verdana" font-size="13" lengthAdjust="spacing" textLength="100.4009" x="568.2339" y="366.1216">INSERT Tracker</text><polygon fill="#33FF33" points="572.2339,396.3203,562.2339,400.3203,572.2339,404.3203,568.2339,400.3203" style="stroke:#33FF33;stroke-width:1;"/><line style="stroke:#33FF33;stroke-width:1;stroke-dasharray:2.0,2.0;" x1="566.2339" x2="862.0962" y1="400.3203" y2="400.3203"/><text fill="#33FF33" font-family="Verdana" font-size="13" lengthAdjust="spacing" textLength="81.7578" x="578.2339" y="395.2544">New Tracker</text><polygon fill="#33FF33" points="307.4258,425.4531,297.4258,429.4531,307.4258,433.4531,303.4258,429.4531" style="stroke:#33FF33;stroke-width:1;"/><line style="stroke:#33FF33;stroke-width:1;stroke-dasharray:2.0,2.0;" x1="301.4258" x2="555.2339" y1="429.4531" y2="429.4531"/><text fill="#33FF33" font-family="Verdana" font-size="13" lengthAdjust="spacing" textLength="49.2705" x="313.4258" y="424.3872">Tracker</text><line style="stroke:#33FF33;stroke-width:1;stroke-dasharray:2.0,2.0;" x1="200.9644" x2="944.6978" y1="438.4531" y2="438.4531"/><text fill="#33FF33" font-family="Verdana" font-size="11" font-weight="bold" lengthAdjust="spacing" textLength="97.6357" x="205.9644" y="448.6636">[Tracker exists]</text><polygon fill="#33FF33" points="539.2339,469.3906,549.2339,473.3906,539.2339,477.3906,543.2339,473.3906" style="stroke:#33FF33;stroke-width:1;"/><line style="stroke:#33FF33;stroke-width:1;" x1="296.4258" x2="545.2339" y1="473.3906" y2="473.3906"/><text fill="#33FF33" font-family="Verdana" font-size="13" lengthAdjust="spacing" textLength="162.9253" x="303.4258" y="468.3247">update_tracker(db, data)</text><polygon fill="#33FF33" points="851.0962,513.6563,861.0962,517.6563,851.0962,521.6563,855.0962,517.6563" style="stroke:#33FF33;stroke-width:1;"/><line style="stroke:#33FF33;stroke-width:1;" x1="561.2339" x2="857.0962" y1="517.6563" y2="517.6563"/><text fill="#33FF33" font-family="Verdana" font-size="13" lengthAdjust="spacing" textLength="105.8154" x="568.2339" y="497.4575">UPDATE Tracker</text><text fill="#33FF33" font-family="Verdana" font-size="13" lengthAdjust="spacing" textLength="205.8989" x="568.2339" y="512.5903">(battery, lat, long, lastUpdated)</text><polygon fill="#33FF33" points="572.2339,542.7891,562.2339,546.7891,572.2339,550.7891,568.2339,546.7891" style="stroke:#33FF33;stroke-width:1;"/><line style="stroke:#33FF33;stroke-width:1;stroke-dasharray:2.0,2.0;" x1="566.2339" x2="862.0962" y1="546.7891" y2="546.7891"/><text fill="#33FF33" font-family="Verdana" font-size="13" lengthAdjust="spacing" textLength="108.7354" x="578.2339" y="541.7231">Updated Tracker</text><polygon fill="#33FF33" points="307.4258,571.9219,297.4258,575.9219,307.4258,579.9219,303.4258,575.9219" style="stroke:#33FF33;stroke-width:1;"/><line style="stroke:#33FF33;stroke-width:1;stroke-dasharray:2.0,2.0;" x1="301.4258" x2="555.2339" y1="575.9219" y2="575.9219"/><text fill="#33FF33" font-family="Verdana" font-size="13" lengthAdjust="spacing" textLength="49.2705" x="313.4258" y="570.856">Tracker</text><polygon fill="#33FF33" points="75.1738,608.0547,65.1738,612.0547,75.1738,616.0547,71.1738,612.0547" style="stroke:#33FF33;stroke-width:1;"/><line style="stroke:#33FF33;stroke-width:1;stroke-dasharray:2.0,2.0;" x1="69.1738" x2="290.4258" y1="612.0547" y2="612.0547"/><text fill="#33FF33" font-family="Verdana" font-size="13" lengthAdjust="spacing" textLength="139.769" x="81.1738" y="606.9888">{"status": "success"}</text><polygon fill="#33FF33" points="856.0962,637.1875,866.0962,641.1875,856.0962,645.1875,860.0962,641.1875" style="stroke:#33FF33;stroke-width:1;"/><line style="stroke:#33FF33;stroke-width:1;" x1="447.7573" x2="862.0962" y1="641.1875" y2="641.1875"/><text fill="#33FF33" font-family="Verdana" font-size="13" lengthAdjust="spacing" textLength="85.7378" x="454.7573" y="636.1216">close session</text><!--SRC=[fLF1ZjCm4BtdAuPSQALTLLmZ5MctYM2bKfQcqLuYLOuzT2s27Un9bmhnxzX9qoOfh1RmmKeyRzwyD_QyeaVyYi0DNUyCeWg2rp1_uNBG5B_Lg3Z2cmWMZz9KbXZ_0kyOuHCxGCo8GLQLcec_uQsO8SbbnHH1UARDrP4t16Qx6aFmhZtS6bqJcbpDM2LdnyEPS6hwgUi6D2GGMA4Ipf94cwiTqbOKascRXHJV3j7SrAA9BTPPF0nvwmMpcAj9-cbvKtBNvqDBv5Y2haFNRuTg8hZ_c6xWGdUkS8-Avc5TXRdo9_DpOx8gyS4FMc0PC4voxp97BeF1RrFN-ubWxQ_G4eW2B5ehjUfHD9QRtMTuUDfYbfgpSZ8zGy-uIqi7YQNe5n0uAd6fpdSq0dy1P9n5DDlYiCLQJaHn1GBtIIrxrPl- - -qaCracYmrisbnuU9-i4vycEIRPtRmb28vosreTLXjOQOLzaGrzm4ewWPGc-Anh9G9mwm_gkK4Nw0oqojtDJPkS8Ra_wUk_MwN9-gI_2G_4hl1f46npBrlVnumDOMdnP0Y_IqlsEJTr9VxLJNOVtsoIhfORYOAHupvSGSd8RLhj_AUbhAaXffU6Zv7_D-skRFpQpWmH_0ZTI55jmmX2MtFkNcpuS_1WHsFL7mvUQjVItxpo-FON]--></g></svg>