<svg xmlns="http://www.w3.org/2000/svg" xmlns:xlink="http://www.w3.org/1999/xlink" contentStyleType="text/css" data-diagram-type="SEQUENCE" height="534px" preserveAspectRatio="none" style="width:938px;height:534px;background:#282828;" version="1.1" viewBox="0 0 938 534" width="938px" zoomAndPan="magnify"><defs/><g><rect fill="#282828" height="534" style="stroke:transparent;stroke-width:1;" width="938" x="0" y="0"/><g><title>mcp_router</title><rect fill="#282828" height="345.2656" style="stroke:#33FF33;stroke-width:1;" width="10" x="309.6191" y="98.8594"/></g><g><title>dependencies</title><rect fill="#282828" height="58.2656" style="stroke:#33FF33;stroke-width:1;" width="10" x="498.6948" y="127.9922"/></g><g><title>crud</title><rect fill="#282828" height="58.2656" style="stroke:#33FF33;stroke-width:1;" width="10" x="607.1714" y="215.3906"/></g><g><title>Database</title><rect fill="#282828" height="308.1328" style="stroke:#33FF33;stroke-width:1;" width="10" x="866.3926" y="157.125"/></g><rect fill="#282828" height="148.4688" style="stroke:#33FF33;stroke-width:1;" width="916.793" x="15" y="288.6563"/><rect fill="#282828" height="102.2031" style="stroke:transparent;stroke-width:1;" width="916.793" x="15" y="334.9219"/><g><title>Frontend</title><rect fill="transparent" height="430.6641" width="8" x="69.5547" y="52.5938"/><line style="stroke:#33FF33;stroke-width:1;" x1="73" x2="73" y1="52.5938" y2="483.2578"/></g><g><title>mcp_router</title><rect fill="transparent" height="430.6641" width="8" x="310.6191" y="52.5938"/><line style="stroke:#33FF33;stroke-width:1;" x1="314.4136" x2="314.4136" y1="52.5938" y2="483.2578"/></g><g><title>dependencies</title><rect fill="transparent" height="430.6641" width="8" x="499.6948" y="52.5938"/><line style="stroke:#33FF33;stroke-width:1;" x1="502.8247" x2="502.8247" y1="52.5938" y2="483.2578"/></g><g><title>crud</title><rect fill="transparent" height="430.6641" width="8" x="608.1714" y="52.5938"/><line style="stroke:#33FF33;stroke-width:1;" x1="611.5649" x2="611.5649" y1="52.5938" y2="483.2578"/></g><g><title>Database</title><rect fill="transparent" height="430.6641" width="8" x="867.3926" y="52.5938"/><line style="stroke:#33FF33;stroke-width:1;" x1="870.9922" x2="870.9922" y1="52.5938" y2="483.2578"/></g><rect fill="#282828" height="30.2969" rx="2.5" ry="2.5" style="stroke:#33FF33;stroke-width:1;" width="77.1094" x="35" y="21.2969"/><text fill="#33FF33" font-family="Verdana" font-size="14" lengthAdjust="spacing" textLength="63.1094" x="42" y="41.292">Frontend</text><rect fill="#282828" height="30.2969" rx="2.5" ry="2.5" style="stroke:#33FF33;stroke-width:1;" width="77.1094" x="35" y="482.2578"/><text fill="#33FF33" font-family="Verdana" font-size="14" lengthAdjust="spacing" textLength="63.1094" x="42" y="502.2529">Frontend</text><rect fill="#282828" height="46.5938" rx="2.5" ry="2.5" style="stroke:#33FF33;stroke-width:1;" width="206.4111" x="211.4136" y="5"/><text fill="#33FF33" font-family="Verdana" font-size="14" lengthAdjust="spacing" textLength="80.2744" x="274.4819" y="24.9951">mcp_router</text><text fill="#33FF33" font-family="Verdana" font-size="14" lengthAdjust="spacing" textLength="192.4111" x="218.4136" y="41.292">/api/mcp/operations/enable</text><rect fill="#282828" height="46.5938" rx="2.5" ry="2.5" style="stroke:#33FF33;stroke-width:1;" width="206.4111" x="211.4136" y="482.2578"/><text fill="#33FF33" font-family="Verdana" font-size="14" lengthAdjust="spacing" textLength="80.2744" x="274.4819" y="502.2529">mcp_router</text><text fill="#33FF33" font-family="Verdana" font-size="14" lengthAdjust="spacing" textLength="192.4111" x="218.4136" y="518.5498">/api/mcp/operations/enable</text><rect fill="#282828" height="46.5938" rx="2.5" ry="2.5" style="stroke:#33FF33;stroke-width:1;" width="111.7402" x="447.8247" y="5"/><text fill="#33FF33" font-family="Verdana" font-size="14" lengthAdjust="spacing" textLength="97.7402" x="454.8247" y="24.9951">dependencies</text><text fill="#33FF33" font-family="Verdana" font-size="14" lengthAdjust="spacing" textLength="58.6865" x="474.3516" y="41.292">get_db()</text><rect fill="#282828" height="46.5938" rx="2.5" ry="2.5" style="stroke:#33FF33;stroke-width:1;" width="111.7402" x="447.8247" y="482.2578"/><text fill="#33FF33" font-family="Verdana" font-size="14" lengthAdjust="spacing" textLength="97.7402" x="454.8247" y="502.2529">dependencies</text><text fill="#33FF33" font-family="Verdana" font-size="14" lengthAdjust="spacing" textLength="58.6865" x="474.3516" y="518.5498">get_db()</text><rect fill="#282828" height="30.2969" rx="2.5" ry="2.5" style="stroke:#33FF33;stroke-width:1;" width="45.2129" x="589.5649" y="21.2969"/><text fill="#33FF33" font-family="Verdana" font-size="14" lengthAdjust="spacing" textLength="31.2129" x="596.5649" y="41.292">crud</text><rect fill="#282828" height="30.2969" rx="2.5" ry="2.5" style="stroke:#33FF33;stroke-width:1;" width="45.2129" x="589.5649" y="482.2578"/><text fill="#33FF33" font-family="Verdana" font-size="14" lengthAdjust="spacing" textLength="31.2129" x="596.5649" y="502.2529">crud</text><rect fill="#282828" height="30.2969" rx="2.5" ry="2.5" style="stroke:#33FF33;stroke-width:1;" width="80.8008" x="830.9922" y="21.2969"/><text fill="#33FF33" font-family="Verdana" font-size="14" lengthAdjust="spacing" textLength="66.8008" x="837.9922" y="41.292">Database</text><rect fill="#282828" height="30.2969" rx="2.5" ry="2.5" style="stroke:#33FF33;stroke-width:1;" width="80.8008" x="830.9922" y="482.2578"/><text fill="#33FF33" font-family="Verdana" font-size="14" lengthAdjust="spacing" textLength="66.8008" x="837.9922" y="502.2529">Database</text><g><title>mcp_router</title><rect fill="#282828" height="345.2656" style="stroke:#33FF33;stroke-width:1;" width="10" x="309.6191" y="98.8594"/></g><g><title>dependencies</title><rect fill="#282828" height="58.2656" style="stroke:#33FF33;stroke-width:1;" width="10" x="498.6948" y="127.9922"/></g><g><title>crud</title><rect fill="#282828" height="58.2656" style="stroke:#33FF33;stroke-width:1;" width="10" x="607.1714" y="215.3906"/></g><g><title>Database</title><rect fill="#282828" height="308.1328" style="stroke:#33FF33;stroke-width:1;" width="10" x="866.3926" y="157.125"/></g><polygon fill="#33FF33" points="297.6191,94.8594,307.6191,98.8594,297.6191,102.8594,301.6191,98.8594" style="stroke:#33FF33;stroke-width:1;"/><line style="stroke:#33FF33;stroke-width:1;" x1="73.5547" x2="303.6191" y1="98.8594" y2="98.8594"/><text fill="#33FF33" font-family="Verdana" font-size="13" lengthAdjust="spacing" textLength="217.0645" x="80.5547" y="78.6606">POST /api/mcp/operations/enable</text><text fill="#33FF33" font-family="Verdana" font-size="13" lengthAdjust="spacing" textLength="171.1836" x="80.5547" y="93.7935">MCPOperationConfig{uid}</text><polygon fill="#33FF33" points="486.6948,123.9922,496.6948,127.9922,486.6948,131.9922,490.6948,127.9922" style="stroke:#33FF33;stroke-width:1;"/><line style="stroke:#33FF33;stroke-width:1;" x1="319.6191" x2="492.6948" y1="127.9922" y2="127.9922"/><text fill="#33FF33" font-family="Verdana" font-size="13" lengthAdjust="spacing" textLength="126.2803" x="326.6191" y="122.9263">Request db session</text><polygon fill="#33FF33" points="854.3926,153.125,864.3926,157.125,854.3926,161.125,858.3926,157.125" style="stroke:#33FF33;stroke-width:1;"/><line style="stroke:#33FF33;stroke-width:1;" x1="508.6948" x2="860.3926" y1="157.125" y2="157.125"/><text fill="#33FF33" font-family="Verdana" font-size="13" lengthAdjust="spacing" textLength="93.666" x="515.6948" y="152.0591">SessionLocal()</text><polygon fill="#33FF33" points="330.6191,182.2578,320.6191,186.2578,330.6191,190.2578,326.6191,186.2578" style="stroke:#33FF33;stroke-width:1;"/><line style="stroke:#33FF33;stroke-width:1;stroke-dasharray:2.0,2.0;" x1="324.6191" x2="502.6948" y1="186.2578" y2="186.2578"/><text fill="#33FF33" font-family="Verdana" font-size="13" lengthAdjust="spacing" textLength="104.0571" x="336.6191" y="181.1919">yield db session</text><polygon fill="#33FF33" points="595.1714,211.3906,605.1714,215.3906,595.1714,219.3906,599.1714,215.3906" style="stroke:#33FF33;stroke-width:1;"/><line style="stroke:#33FF33;stroke-width:1;" x1="319.6191" x2="601.1714" y1="215.3906" y2="215.3906"/><text fill="#33FF33" font-family="Verdana" font-size="13" lengthAdjust="spacing" textLength="194.3271" x="326.6191" y="210.3247">get_operation_by_uid(db, uid)</text><polygon fill="#33FF33" points="854.3926,240.5234,864.3926,244.5234,854.3926,248.5234,858.3926,244.5234" style="stroke:#33FF33;stroke-width:1;"/><line style="stroke:#33FF33;stroke-width:1;" x1="617.1714" x2="860.3926" y1="244.5234" y2="244.5234"/><text fill="#33FF33" font-family="Verdana" font-size="13" lengthAdjust="spacing" textLength="225.2212" x="624.1714" y="239.4575">SELECT Operation WHERE uid=uid</text><polygon fill="#33FF33" points="623.1714,269.6563,613.1714,273.6563,623.1714,277.6563,619.1714,273.6563" style="stroke:#33FF33;stroke-width:1;"/><line style="stroke:#33FF33;stroke-width:1;stroke-dasharray:2.0,2.0;" x1="617.1714" x2="865.3926" y1="273.6563" y2="273.6563"/><text fill="#33FF33" font-family="Verdana" font-size="13" lengthAdjust="spacing" textLength="120.1738" x="629.1714" y="268.5903">Operation or None</text><path d="M15,288.6563 L79.4429,288.6563 L79.4429,295.7891 L69.4429,305.7891 L15,305.7891 L15,288.6563 " fill="#33FF33" style="stroke:#33FF33;stroke-width:1;"/><rect fill="transparent" height="148.4688" style="stroke:#33FF33;stroke-width:1;" width="916.793" x="15" y="288.6563"/><text fill="#282828" font-family="Verdana" font-size="13" font-weight="bold" lengthAdjust="spacing" textLength="19.4429" x="30" y="301.7231">alt</text><text fill="#33FF33" font-family="Verdana" font-size="11" font-weight="bold" lengthAdjust="spacing" textLength="136.1895" x="94.4429" y="300.8667">[Operation not found]</text><polygon fill="#33FF33" points="84.5547,322.9219,74.5547,326.9219,84.5547,330.9219,80.5547,326.9219" style="stroke:#33FF33;stroke-width:1;"/><line style="stroke:#33FF33;stroke-width:1;stroke-dasharray:2.0,2.0;" x1="78.5547" x2="308.6191" y1="326.9219" y2="326.9219"/><text fill="#33FF33" font-family="Verdana" font-size="13" lengthAdjust="spacing" textLength="96.0146" x="90.5547" y="321.856">404 Not Found</text><line style="stroke:#33FF33;stroke-width:1;stroke-dasharray:2.0,2.0;" x1="15" x2="931.793" y1="335.9219" y2="335.9219"/><text fill="#33FF33" font-family="Verdana" font-size="11" font-weight="bold" lengthAdjust="spacing" textLength="111.7134" x="20" y="346.1323">[Operation found]</text><polygon fill="#33FF33" points="854.3926,366.8594,864.3926,370.8594,854.3926,374.8594,858.3926,370.8594" style="stroke:#33FF33;stroke-width:1;"/><line style="stroke:#33FF33;stroke-width:1;" x1="319.6191" x2="860.3926" y1="370.8594" y2="370.8594"/><text fill="#33FF33" font-family="Verdana" font-size="13" lengthAdjust="spacing" textLength="249.2026" x="326.6191" y="365.7935">UPDATE Operation SET selected=True</text><polygon fill="#33FF33" points="330.6191,395.9922,320.6191,399.9922,330.6191,403.9922,326.6191,399.9922" style="stroke:#33FF33;stroke-width:1;"/><line style="stroke:#33FF33;stroke-width:1;stroke-dasharray:2.0,2.0;" x1="324.6191" x2="865.3926" y1="399.9922" y2="399.9922"/><text fill="#33FF33" font-family="Verdana" font-size="13" lengthAdjust="spacing" textLength="124.1602" x="336.6191" y="394.9263">Updated Operation</text><polygon fill="#33FF33" points="84.5547,425.125,74.5547,429.125,84.5547,433.125,80.5547,429.125" style="stroke:#33FF33;stroke-width:1;"/><line style="stroke:#33FF33;stroke-width:1;stroke-dasharray:2.0,2.0;" x1="78.5547" x2="308.6191" y1="429.125" y2="429.125"/><text fill="#33FF33" font-family="Verdana" font-size="13" lengthAdjust="spacing" textLength="101.772" x="90.5547" y="424.0591">{"status": 200}</text><polygon fill="#33FF33" points="859.3926,461.2578,869.3926,465.2578,859.3926,469.2578,863.3926,465.2578" style="stroke:#33FF33;stroke-width:1;"/><line style="stroke:#33FF33;stroke-width:1;" x1="503.6948" x2="865.3926" y1="465.2578" y2="465.2578"/><text fill="#33FF33" font-family="Verdana" font-size="13" lengthAdjust="spacing" textLength="85.7378" x="510.6948" y="460.1919">close session</text><!--SRC=[bPDHQzim58NVzIlkyh8KLXAwRW-63BR4sHwwDIGEUma4MRhD1AxaITU3KlhVTssviP9ri0biWNNEkP-kv5Vq0-yHbAVBWqUqGho6sJyEbcxmPuDM8RpF8BUoh12-pbTmMwENP9pzdxHQUZBArD8IZ9RUMKAhHo03BFEtfwltgjvxrn3wdPt8sapumyGz5mqJx50wB-EihqxT6cjEPco3OMSFI7jTZYywzMUanQTtftBbcuWnNsyNPsiBIRAK8PPgdO9PuV93B9l1wdPJmDy9TvPrnsRDdRqpXyV6w2SX5PbVah3d5ztK1aV23DPjvmE1BY5W26slZvv-5t5gJPrZ4sKtJibgV36eK-b0_c2mqccwnlFy0QhhJ0PjAuzxt9SFUzxAM9TlWEUaOEnZznxWyfjyNWmN1xv_oTTvQvpn8vxX-aA3p7duvYocT35Uo8eIdNK4TwwnMW2F7fm3-RWok9vUSmh1iXDW5J1n_k7gYRUhnSSYJuIRlE1cLQW8zQpm3NQcixPkQysCElb3Nk1v70MIr8HH1bVJwPFWsohI7SOxSNQygdBC_S9fyUfl]--></g></svg>